<svg xmlns="http://www.w3.org/2000/svg" viewBox="0 0 497.25 497.25"><defs><style>.cls-1{fill:#ece5d1;}</style></defs><title>back</title><g id="Layer_2" data-name="Layer 2"><g id="Capa_1" data-name="Capa 1"><path class="cls-1" d="M0,248.62C0,385.71,111.54,497.25,248.62,497.25S497.25,385.71,497.25,248.63,385.71,0,248.63,0,0,111.54,0,248.62Zm153,0a28.77,28.77,0,0,1,9.3-21.16L277,122.3l.06.08a28.59,28.59,0,1,1,38.67,42.13l.06.08-91.69,84,91.69,84.06-.06.08a28.4,28.4,0,0,1,9.36,21.05,28.6,28.6,0,0,1-48,21.08l-.05.08L162.3,269.78A28.77,28.77,0,0,1,153,248.63Z"/></g></g></svg>