<svg xmlns="http://www.w3.org/2000/svg" viewBox="0 0 166.38 129.55"><defs><style>.cls-1{fill:#427350;}</style></defs><title>bank</title><g id="Layer_2" data-name="Layer 2"><g id="Layer_1-2" data-name="Layer 1"><path class="cls-1" d="M113,20.1c-3.26-3-7.35-6.61-13.21-8.69l-2.29-.15c1.87,3.73,4.37,8.85,6.83,13.28A61.27,61.27,0,0,0,113,20.1Z"/><path class="cls-1" d="M99.33,26.52C96.22,19.7,93.66,14.73,88.39,9.3L86,9.23l.07,20.23C89.68,29.18,93.39,28.37,99.33,26.52Z"/><path class="cls-1" d="M104.87,49.63a51.44,51.44,0,0,0-4-18.25A62.38,62.38,0,0,1,86,34.59V49.77C93,49.49,99,49.55,104.87,49.63Z"/><path class="cls-1" d="M106.16,29.43a86.07,86.07,0,0,1,4.64,20.21l15.76.29c.57-10-4-18.93-10.15-26.1a89.77,89.77,0,0,1-10.25,5.6Z"/><path class="cls-1" d="M97.79,94.11l2.29-.15c5.86-2.08,10-5.74,13.22-8.69a59.74,59.74,0,0,0-8.67-4.44C102.16,85.25,99.66,90.38,97.79,94.11Z"/><path class="cls-1" d="M87,75.91l-.07,20.23,2.39-.07c5.27-5.43,7.83-10.4,10.94-17.23A59.18,59.18,0,0,0,87,75.91Z"/><path class="cls-1" d="M104.87,55.74C99,55.82,93,55.88,86,55.6V70.78A62.38,62.38,0,0,1,100.9,74,51.44,51.44,0,0,0,104.87,55.74Z"/><path class="cls-1" d="M106.43,75.93h0a89.24,89.24,0,0,1,10.25,5.61c6.16-7.17,10.73-16.07,10.15-26.1l-15.76.29A85.87,85.87,0,0,1,106.43,75.93Z"/><path class="cls-1" d="M69.58,11.53l-2.29.15c-5.86,2.08-10,5.74-13.21,8.69a59.74,59.74,0,0,0,8.67,4.44C65.21,20.39,67.72,15.26,69.58,11.53Z"/><path class="cls-1" d="M81,29.74,81.07,9.5l-2.39.07C73.41,15,70.85,20,67.74,26.8A59.88,59.88,0,0,0,81,29.74Z"/><path class="cls-1" d="M62.13,49.9C68.05,49.82,74,49.76,81,50V34.86a62.38,62.38,0,0,1-14.9-3.21A51.44,51.44,0,0,0,62.13,49.9Z"/><path class="cls-1" d="M56.3,49.91a85.87,85.87,0,0,1,4.64-20.2A90.08,90.08,0,0,1,50.69,24.1C44.53,31.27,40,40.17,40.54,50.2Z"/><path class="cls-1" d="M53.8,85.54c3.26,2.95,7.36,6.61,13.22,8.69l2.29.15c-1.87-3.73-4.37-8.85-6.84-13.28A61.81,61.81,0,0,0,53.8,85.54Z"/><path class="cls-1" d="M67.67,79.12C70.78,86,73.34,90.91,78.61,96.35l2.39.06-.07-20.23C77.32,76.46,73.61,77.27,67.67,79.12Z"/><path class="cls-1" d="M62.13,56a51.44,51.44,0,0,0,4,18.25A63.37,63.37,0,0,1,81,71.05V55.88C74,56.15,68.05,56.09,62.13,56Z"/><path class="cls-1" d="M60.67,76.21A86,86,0,0,1,56,56l-15.76-.29c-.58,10,4,18.93,10.15,26.11A88.52,88.52,0,0,1,60.67,76.21Z"/><path class="cls-1" d="M83.87,106a52.26,52.26,0,0,0,52.46-53A53.93,53.93,0,0,0,82.54,0,52.24,52.24,0,0,0,30.08,53,53.92,53.92,0,0,0,83.87,106ZM48.25,18.69A47.81,47.81,0,0,1,82.54,4.42,49.5,49.5,0,0,1,131.91,53a47.82,47.82,0,0,1-48,48.52A49.49,49.49,0,0,1,34.5,53,47.48,47.48,0,0,1,48.25,18.69Z"/><polygon class="cls-1" points="0 120.55 4 120.55 4 129.54 7 129.54 7 120.55 11 120.55 11 117.55 0 117.55 0 120.55"/><polygon class="cls-1" points="20 121.55 16 121.55 16 117.55 13 117.55 13 129.54 16 129.54 16 124.55 20 124.55 20 129.54 23 129.54 23 117.55 20 117.55 20 121.55"/><polygon class="cls-1" points="29 124.55 34 124.55 34 122.55 29 122.55 29 119.55 34 119.55 34 117.55 26 117.55 26 129.54 34 129.54 34 127.55 29 127.55 29 124.55"/><polygon class="cls-1" points="53.93 126.27 51.87 117.55 48.89 117.55 46.83 126.27 44.76 117.55 41.79 117.55 44.64 129.54 48.21 129.54 50.37 120.42 52.55 129.54 56.11 129.54 58.94 117.55 56 117.55 53.93 126.27"/><path class="cls-1" d="M66.15,117.33A6,6,0,0,0,61.7,119a7,7,0,0,0,0,9,6.32,6.32,0,1,0,4.45-10.59Zm2.16,9a2.77,2.77,0,0,1-4.31,0,5.77,5.77,0,0,1,0-5.76,2.77,2.77,0,0,1,4.31,0,5.84,5.84,0,0,1,0,5.76Z"/><path class="cls-1" d="M83.13,124.59a2.21,2.21,0,0,0-1.13-.65,3.37,3.37,0,0,0,1.73-1.13,3.18,3.18,0,0,0,.58-2,2.89,2.89,0,0,0-1.11-2.52,6,6,0,0,0-3.47-.79H75v12h3v-4h.38c.5-.69.89-.58,1.19-.36a3.14,3.14,0,0,1,.88,1.2l1.43,3.16h4l-1.68-3.41A5.92,5.92,0,0,0,83.13,124.59Zm-2.51-2.4a2,2,0,0,1-1.35.36H78v-3h1.27a2.09,2.09,0,0,1,1.35.34A1.4,1.4,0,0,1,81,121,1.43,1.43,0,0,1,80.62,122.19Z"/><polygon class="cls-1" points="90 117.55 87 117.55 87 129.54 95 129.54 95 126.55 90 126.55 90 117.55"/><path class="cls-1" d="M106.63,119.26a5.39,5.39,0,0,0-2.3-1.32,15.61,15.61,0,0,0-4.07-.39H97v12h3.26a15.65,15.65,0,0,0,4-.39,5.48,5.48,0,0,0,2.32-1.33,5.09,5.09,0,0,0,1.25-1.87,6.59,6.59,0,0,0,.41-2.43,6.5,6.5,0,0,0-.41-2.4A5.09,5.09,0,0,0,106.63,119.26Zm-2.8,6.39a3.9,3.9,0,0,1-2.77.9H100v-7h1.06a3.88,3.88,0,0,1,2.77.89,3.36,3.36,0,0,1,1,2.59A3.41,3.41,0,0,1,103.83,125.65Z"/><path class="cls-1" d="M123.79,123.12a2.43,2.43,0,0,0,1.19-.9,3.08,3.08,0,0,0-.72-3.92,6.65,6.65,0,0,0-3.61-.75H116v12h5.14a6,6,0,0,0,3.56-.86,3,3,0,0,0,1.18-2.58,3.22,3.22,0,0,0-.55-1.92A2.78,2.78,0,0,0,123.79,123.12ZM119,119.55h1.92a2,2,0,0,1,1.09.39,1.12,1.12,0,0,1,.37.92,1.14,1.14,0,0,1-.37.93c-.25.21-.61.31-1.09-.24H119Zm3.07,7.62a2,2,0,0,1-1.34.38H119v-3h1.73a2.07,2.07,0,0,1,1.35.37,1.64,1.64,0,0,1,0,2.25Z"/><path class="cls-1" d="M131.42,117.55l-4.44,12h3.38l.7-2h4.43l.69,2h3.38l-4.45-12Zm.24,7,1.61-4.69,1.61,4.69Z"/><polygon class="cls-1" points="149 125.78 144.54 117.55 141 117.55 141 129.54 144 129.54 144 121.31 148.46 129.54 152 129.54 152 117.55 149 117.55 149 125.78"/><polygon class="cls-1" points="160.21 123.23 165.81 117.55 162.32 117.55 158 121.93 158 117.55 155 117.55 155 117.55 155 129.54 158 129.54 158 124.82 162.63 129.54 166.38 129.54 160.21 123.23"/></g></g></svg>