<svg xmlns="http://www.w3.org/2000/svg" xmlns:xlink="http://www.w3.org/1999/xlink" viewBox="0 0 680.24 658"><defs><style>.cls-1{fill:none;}.cls-2{opacity:0.08;}.cls-3{clip-path:url(#clip-path);}.cls-4{fill:#fff;}</style><clipPath id="clip-path" transform="translate(0 -0.24)"><rect class="cls-1" x="0.53" width="680" height="658"/></clipPath></defs><title>flower</title><g id="Layer_2" data-name="Layer 2"><g id="Layer_1-2" data-name="Layer 1"><g class="cls-2"><g class="cls-3"><path class="cls-4" d="M329.47,605.73c0,13.47-.3,26.95.09,40.4.32,11.12-6.5,12.12-15,12-8.14-.1-15-.29-15.43-11.62C297.85,608,296.23,569.46,294.1,531c-2.63-47.53-9.12-94.62-17.1-141.53-1.63-9.59-7.25-13.05-16.08-15.12-46.15-10.83-88.59-29.73-124-61.88-37.3-33.9-61.53-74.6-61.21-126.89.1-16.92.77-18,17.23-17.72,72.35,1.16,126.07,36.09,167.48,93a288.61,288.61,0,0,1,38,72.53c3.62,10.08,9.84,14.42,19.93,14.46,13.92.05,27.84,0,41.75.1,11.11.09,17.8-4.37,22-15.52,21.14-55.94,53.58-103.55,105.11-136,31.17-19.66,65.59-28.32,102.37-28.74,11-.13,14.87,3.82,15,14.92.74,53.9-23.57,95.76-62.2,130.56-34.83,31.36-76.32,50.2-121.6,60.69-11.37,2.63-16.56,7.91-18.42,19.31C391.27,461.83,383.72,530.85,383,600.56c-.14,15.23-1.85,30.44-2,45.67-.08,11.17-6.8,11.94-15.16,11.92s-15.41-.41-15.22-11.72c.46-27.38-.56-54.83,1-82.14,3.1-55.95,5.81-112,14.79-167.43,1.42-8.8-1.44-13.83-11.37-13.45s-19.77.39-29.63,0c-9.66-.39-13.06,4.08-11.71,13.16,5.42,36.4,9,73,11.18,109.72,1.93,33.14,4.6,66.22,4.55,99.44m-214.82-392c3.21,12.41,7.63,24.11,14.39,34.83,28.25,44.8,70.25,70.51,119.64,85.82,3.17,1,7.09,4.22,9.87.59,2.43-3.15-.42-6.83-1.86-10a248.26,248.26,0,0,0-45.26-68c-23.22-24.67-51.25-41.89-84.67-49.42-5.56-1.26-12.18-3.71-12.11,6.16m451-1.06c-1.08-9.5-7.86-6.16-13-4.87-65.36,16.4-103.28,62.65-130.51,120.42-1.07,2.28-2.66,5.29,0,7.4,2.38,1.87,5.13.11,7.64-.64C472,322.42,509,301.51,537.72,267.57c13.45-15.91,23.43-33.88,28-54.94" transform="translate(0 -0.24)"/><path class="cls-4" d="M404.11,635.67C417.32,519.71,467,429,579.79,382.31c26.81-11.08,55.3-14.78,84.3-15.48,12.61-.31,16,4.63,16.15,16.62.43,53.37-26.89,92-65.76,124-45.42,37.29-98.88,58-155.71,70.26-12.07,2.61-17.54,8.15-19.3,19.93-2.19,14.64-5,29.15-5.16,44s-3.18,16.71-19.05,16.6c-13.53-.1-12.64-8.07-11.19-17.19a34.48,34.48,0,0,0,0-5.38m55.19-96.09c34.8-3.48,98.4-31.81,131-58.45,19.9-16.26,37.6-34.68,47.05-59.37,1.71-4.46,5.54-9.41,2.24-13.9-3.77-5.12-9.93-2.72-15-1.75-38.76,7.39-73,24.47-102.55,50.3-26.17,22.83-47.27,49.75-62.7,83.17" transform="translate(0 -0.24)"/><path class="cls-4" d="M276.13,635.83a32.05,32.05,0,0,0,.05,5.37c1.56,9.28,2,17-11.37,17-15.81,0-18.68-1.61-18.89-16.76-.22-15.36-3-30.31-5.49-45.37-1.77-10.7-6.79-15.77-17.82-18.15-57.27-12.35-111.21-33-157-70.65C26.37,475-1,435.89,0,382c.21-10.94,3.78-15.2,14.91-15q110.55,1.45,184.38,83.47c47.41,52.71,72,115,76.81,185.45m-55-94.76c-2.28-5.55-3-8.09-4.31-10.36-35.24-64-86-108.15-158.76-124.07-5.6-1.22-12.36-4.14-16.65.51-5.2,5.64.29,11.86,2.69,17.25C59,457.73,85.3,480.17,115.52,498.81c31.87,19.66,66.42,32.51,105.64,42.26" transform="translate(0 -0.24)"/><path class="cls-4" d="M283,134.81c.28-52,16.4-93.15,47.64-128.62,6.38-7.25,11.12-8.35,18.38-.65,64.28,68,64.05,181.47-.32,250-7.38,7.86-10.9,6.84-17.57-.43C298.65,219.67,283.58,177.8,283,134.81m30.43-5.67c1.39,27.91,6.09,54.26,18.9,78.6,1.79,3.42,3.13,8.4,7.8,8.35s6.09-5,7.76-8.44c24.63-51.42,25-102.86-.32-154.2-1.55-3.16-2.87-7.27-6.86-7.68-5.08-.52-6.24,4.37-8.14,7.75-13.38,23.69-17.18,49.8-19.14,75.62" transform="translate(0 -0.24)"/></g></g></g></g></svg>