<svg xmlns="http://www.w3.org/2000/svg" viewBox="0 0 179 105.44"><defs><style>.cls-1{fill:#373930;}</style></defs><title>frgov</title><g id="Layer_2" data-name="Layer 2"><g id="Layer_1-2" data-name="Layer 1"><path id="path8" class="cls-1" d="M142.94,105.38c-.1,0-.1-.15,0-.39s.15-.32.56-.27.47,0,.62-.2c.3-.42.07-.73-.46-.63s-.42.07-.34-.24c.25-1,.27-.94-.47-1.09a4.53,4.53,0,0,1-2.4-1.4,4.88,4.88,0,0,1-1.22-4,4.41,4.41,0,0,1,.41-1.89c.87-1.92,2.87-2.91,5.55-2.73a12,12,0,0,1,1.63.22l.58.15,0,1.08,0,1.07h-.35c-.21,0-.36-.06-.36-.14,0-.31-.71-1-1.21-1.2a4,4,0,0,0-2.55.11c-1.44.7-2.1,2.52-1.66,4.59a4.22,4.22,0,0,0,1.18,2.27,2.71,2.71,0,0,0,2.15.89,2.18,2.18,0,0,0,2.1-1.2c.29-.55.39-.62.67-.44s.14.27,0,1.16l-.15,1.06-.53.18a7.62,7.62,0,0,1-1.49.25c-.91.07-1,.09-1,.35s.06.27.26.27a.88.88,0,0,1,.84.69,1.4,1.4,0,0,1-.65,1.35,4,4,0,0,1-1.81.1Zm-69.24-.49a9.32,9.32,0,0,1-2.93-1.51l-.9-.66-1.4-.07a4.55,4.55,0,0,1-3.09-1c-2.2-1.62-2.28-5.74-.15-7.74a5.82,5.82,0,0,1,6.48-.72c2.75,1.5,3,5.91.54,8.22a4,4,0,0,1-.84.66,19.75,19.75,0,0,0,3.29,1.8,4.15,4.15,0,0,0,2.68.12c.55-.2.64-.17.73.18s0,.29-.59.55a6.73,6.73,0,0,1-3.82.16Zm-3.42-3.6c2-1,2.32-4.28.73-6.36A2.85,2.85,0,0,0,66,95.5c-.88,2,.12,5.07,1.92,5.89A2.81,2.81,0,0,0,70.28,101.29ZM9.12,102.5c-.54-.24-1.12-1-2-2.54C5.65,97.54,5.38,97.19,5,97.19H4.64V98.5c0,2.39.24,3.21,1,3.39a.32.32,0,0,1,.28.36v.29H1.15v-.27c0-.21.08-.3.36-.38a1.37,1.37,0,0,0,.61-.43c.24-.32.25-.44.25-4.85s0-4.53-.25-4.85a1.39,1.39,0,0,0-.61-.44c-.27-.07-.36-.17-.36-.36s0-.25,2.95-.33c3.13-.08,3.82,0,4.71.41a3,3,0,0,1,1.41,2.49,3.58,3.58,0,0,1-1.94,3l-.58.29L9,98.7c1.51,2.26,2,2.87,2.43,3.1s.45.68.07.79a6.83,6.83,0,0,1-2.36-.09ZM6.21,96a2.27,2.27,0,0,0,.9-3.73,2.12,2.12,0,0,0-1.89-.62l-.58.08v4.4h.55a4.74,4.74,0,0,0,1-.13ZM33,102.5a3.64,3.64,0,0,1-1.56-1c-.57-.76-.64-1.16-.64-4.25s-.07-3.58-.66-3.85c-.24-.11-.38-.26-.38-.41s.07-.23,2-.23,2,0,2,.26-.07.26-.21.26a.92.92,0,0,0-.49.3l-.29.3V97c0,3,0,3.19.25,3.63a2.25,2.25,0,0,0,3.87-.28c.3-.64.3-.68.3-3.51,0-2.53,0-2.89-.2-3.17a1,1,0,0,0-.49-.38c-.18,0-.29-.16-.29-.29s.11-.22,1.57-.22,1.57,0,1.57.22-.11.24-.29.29c-.53.13-.58.38-.64,3.74l-.06,3.15-.35.69A3.13,3.13,0,0,1,36,102.48a7.16,7.16,0,0,1-3,0Zm45.39,0a3.59,3.59,0,0,1-1.57-1.07c-.55-.72-.63-1.25-.63-4.29s-.07-3.52-.66-3.79c-.24-.11-.38-.26-.38-.41s.07-.23,2-.23,2,0,2,.25a.26.26,0,0,1-.25.29,1,1,0,0,0-.49.37c-.23.31-.25.5-.28,3,0,3.13,0,3.79.57,4.34a2.32,2.32,0,0,0,3.52-.49c.36-.75.45-1.69.41-4.15,0-2.61-.13-2.94-.74-3.09-.18,0-.29-.16-.29-.29s.11-.22,1.57-.22,1.57,0,1.57.21-.13.28-.34.36a.91.91,0,0,0-.43.34c0,.1-.12,1.61-.15,3.34l-.07,3.15-.35.69a3.13,3.13,0,0,1-1.94,1.62,7.16,7.16,0,0,1-3,0Zm36.84,0c-.46-.2-1-.89-1.87-2.33-1.11-1.87-1.23-2-1.52-2s-.26,0-.26,1.46c0,1.74.14,2.23.69,2.34.27,0,.35.13.35.35v.27h-4v-.27c0-.22.07-.3.35-.35.66-.13.71-.45.67-4.5l0-3.59-.28-.3a1,1,0,0,0-.49-.3.2.2,0,0,1-.21-.22c0-.19.11-.24.85-.3.47,0,1.77-.06,2.88,0,1.81,0,2.08.07,2.51.3a2.36,2.36,0,0,1,1.2,2.2,2.71,2.71,0,0,1-1.54,2.36c-.31.18-.52.36-.45.41a16.59,16.59,0,0,1,1.14,1.61c1.11,1.66,1.72,2.41,2,2.41s.21.54,0,.63a4.77,4.77,0,0,1-2-.1ZM113.1,97a1.84,1.84,0,0,0,.41-3,1.62,1.62,0,0,0-1.5-.42l-.41,0v3.58h.58a2.51,2.51,0,0,0,.92-.17Zm51.81,5.45a4.85,4.85,0,0,1-.68-.21,7.34,7.34,0,0,1-.19-1.16l-.15-1.12h.33c.18,0,.33,0,.33.1a3,3,0,0,0,1.21,1.41c1.19.58,2.63,0,2.63-1,0-.68-.33-1.09-1.45-1.79-1.57-1-2.18-1.51-2.5-2.14a3.41,3.41,0,0,1-.13-2.32,3.25,3.25,0,0,1,1.5-1.45,7,7,0,0,1,3.37,0l.61.22v2.07h-.34c-.26,0-.35-.06-.41-.29a2.07,2.07,0,0,0-1.27-1.23c-1.39-.38-2.51,1.06-1.63,2.1a12.47,12.47,0,0,0,1.68,1.3c1.48,1,2,1.54,2.2,2.2a2.57,2.57,0,0,1-1.7,3.25,7.1,7.1,0,0,1-3.41,0Zm-152.47-.24c0-.21.06-.27.28-.27a.77.77,0,0,0,.52-.31c.23-.29.24-.44.24-4a23.87,23.87,0,0,0-.13-3.91.94.94,0,0,0-.71-.55c-.14,0-.2-.09-.2-.29v-.29h7v2.46l-.31,0c-.23,0-.34-.13-.43-.43-.23-.7-.62-.87-2-.92l-1.22,0V97l.94-.06c1-.06,1.53-.31,1.6-.77,0-.19.12-.25.35-.25h.31v3h-.32c-.26,0-.32-.05-.32-.27,0-.52-.39-.71-1.52-.76l-1,0V99.5c0,2,0,2,1.35,2s2-.33,2.33-1.13c.18-.41.58-.52.7-.2a5.66,5.66,0,0,1-.49,2l-.17.34-3.37,0-3.37,0v-.27Zm9,0c0-.22.08-.3.34-.35.61-.12.64-.29.68-4,0-3.9,0-4.25-.64-4.54-.27-.13-.38-.26-.38-.45v-.27l2.64.05c2.87,0,3.1.09,3.88.75a2.66,2.66,0,0,1,.49,3.2,3.17,3.17,0,0,1-2.76,1.56l-.73.07-.18-.45-.18-.45L25,97.3a2.4,2.4,0,0,0,1.46-.85,1.34,1.34,0,0,0,.23-.93,1.78,1.78,0,0,0-1.76-1.92l-.63,0,0,3.89c0,4.23.06,4.35.7,4.48.24,0,.32.14.32.35v.27h-4v-.27Zm19.32,0c0-.18.07-.26.22-.26a1,1,0,0,0,.49-.22l.28-.22,0-3.61c0-4,0-4.35-.67-4.6-.21-.08-.35-.21-.35-.34s.16-.21,1.77-.23c3.4-.06,4.11,0,4.66.25a1.78,1.78,0,0,1,1.11,1.66,3.93,3.93,0,0,1,0,.95A2.4,2.4,0,0,1,47,96.9l-.55.25.47.14a2.53,2.53,0,0,1,1.68,2.77,2.43,2.43,0,0,1-1.64,2.16c-.55.25-.7.26-3.4.26H40.72v-.27Zm5.13-.87a1.72,1.72,0,0,0,.76-1.75,2.06,2.06,0,0,0-2.29-1.95h-.71l0,1.76c0,1.68.05,1.77.31,2a1.93,1.93,0,0,0,1.89,0Zm-.48-4.84a1.43,1.43,0,0,0,1-1.51c-.1-.91-.84-1.42-2.06-1.42h-.7v3.14h.61A4.19,4.19,0,0,0,45.37,96.51Zm4.77,5.72c0-.19.08-.26.31-.29a.94.94,0,0,0,.56-.37c.23-.31.24-.45.24-3.9,0-2.86,0-3.62-.16-3.86a1,1,0,0,0-.74-.58c-.13,0-.21-.09-.21-.26s0-.26,2.1-.26,2.09,0,2.09.26-.07.26-.22.26a1.17,1.17,0,0,0-.56.28l-.32.28,0,3.67,0,3.67.3.2c.23.15.49.18,1.21.14,1.11-.06,1.62-.34,1.93-1,.21-.46.42-.57.73-.37.12.07.1.29-.09,1a5.93,5.93,0,0,1-.41,1.19l-.18.27-3.25,0-3.26,0Zm8.15,0c0-.22.08-.3.36-.35.64-.13.69-.45.69-4.35,0-3.24,0-3.49-.23-3.84a1.08,1.08,0,0,0-.52-.45c-.2,0-.3-.15-.3-.32s0-.25,2-.25,2,0,2,.25-.1.27-.29.32a1.05,1.05,0,0,0-.5.38c-.18.29-.2.67-.2,3.87,0,4,.05,4.27.66,4.39.25,0,.33.13.33.35v.27h-4Zm27.82,0c0-.19.09-.27.35-.32.64-.13.69-.45.69-4.36,0-3.43,0-3.49-.26-3.88a1.06,1.06,0,0,0-.53-.43c-.18,0-.25-.11-.25-.32v-.28H93v1.22c0,1.21,0,1.22-.27,1.22s-.3-.07-.36-.4c-.13-.69-.6-.92-2-1l-1.18,0-.08.55c0,.31-.07,1-.07,1.66V97l1-.06c1.09-.07,1.52-.26,1.64-.73a.32.32,0,0,1,.35-.29h.28v3H92c-.19,0-.29-.06-.29-.2,0-.58-.56-.84-1.75-.84H89l0,1.64c0,2,0,2,1.44,2,1.23,0,1.87-.29,2.21-1,.17-.37.3-.5.49-.5a.42.42,0,0,1,.33.13,6.24,6.24,0,0,1-.62,2.27c-.14.14-.73.17-3.47.14l-3.3,0v-.26Zm12.8,0c0-.19.11-.32.37-.43a2,2,0,0,0,.61-.5c.23-.32.24-.46.24-4.71,0-4.94,0-5-.81-5.26-.32-.11-.41-.2-.41-.42v-.28h8.15v2.91h-.35c-.29,0-.35,0-.35-.26a1.59,1.59,0,0,0-.91-1.22,5.91,5.91,0,0,0-1.74-.24l-1.31,0v4h1c1.28,0,1.72-.17,2-.73.17-.35.28-.43.55-.43h.34v3.5l-.37,0c-.26,0-.4-.11-.44-.27-.18-.69-.9-1-2.31-1h-.75l0,2.06c.06,2.36.16,2.71.85,3,.31.11.41.21.41.41v.27H98.91v-.27Zm18.62,0c0-.21.06-.29.23-.29.36,0,.77-.73,1.65-2.94,1.19-3,2.31-6,2.31-6.18s.12-.19.55-.19h.56l1.57,4c1.7,4.37,2,5,2.41,5.22a.42.42,0,0,1,.26.38c0,.26,0,.26-2,.26h-2v-.27c0-.22.08-.3.34-.35.5-.1.53-.44.14-1.59l-.33-1h-2.75l-.28.82c-.34,1-.32,1.73.05,1.78a.27.27,0,0,1,.27.32v.28h-3v-.29Zm5.35-4.07a18.49,18.49,0,0,0-.92-2.5,1.23,1.23,0,0,0-.26.49l-.48,1.28-.3.79h1A4.26,4.26,0,0,0,122.88,98.18Zm5,4.09c0-.21.08-.3.32-.35.63-.13.66-.29.71-4.1s0-4.25-.68-4.51c-.21-.08-.35-.21-.35-.34s.13-.2,1.31-.2h1.31l.75,1c.42.53,1.49,1.83,2.39,2.89s1.75,2.08,1.9,2.27l.26.34,0-2.62c-.05-2.87-.11-3.16-.73-3.32-.19,0-.29-.16-.29-.29s.1-.22,1.57-.22,1.57,0,1.57.22a.26.26,0,0,1-.25.26,1,1,0,0,0-.5.37c-.23.32-.24.47-.28,4.62l0,4.3h-.51c-.46,0-.54-.05-.89-.49s-5.24-6.51-5.43-6.72c0,0,0,1.25,0,2.85.06,3.24.13,3.63.69,3.74.25,0,.33.13.33.35v.27h-3.14v-.27Zm20.37,0c0-.17.06-.29.16-.29s.66-.55,1-1.23c.43-.94,2.42-6.09,2.76-7.13l.32-1,.52,0,.52,0,1.54,4c.85,2.18,1.64,4.14,1.76,4.37.26.51.63.93.84.93s.15.13.15.29v.29h-4v-.29c0-.2.07-.29.21-.29.57,0,.62-.49.19-1.77l-.3-.91h-2.73l-.25.79c-.47,1.48-.44,1.89.1,1.89.16,0,.22.08.22.29v.29h-3ZM153.19,97l-.46-1.36c0-.11-.28.34-.58,1.1s-.51,1.32-.51,1.37a2.62,2.62,0,0,0,1,.09h1Zm5.31,5.21c0-.23.06-.29.27-.29a.84.84,0,0,0,.5-.24c.2-.23.22-.5.25-3.87,0-2,0-3.75,0-3.89a1.09,1.09,0,0,0-.78-.73c-.14,0-.21-.09-.21-.26s0-.26,2-.26,2,0,2,.23-.13.29-.34.38a1,1,0,0,0-.46.47,37.92,37.92,0,0,0-.16,6c.07,1.37.13,1.69.31,1.89a.73.73,0,0,0,.43.24c.15,0,.22.09.22.29v.29h-4v-.29Zm13,0c0-.21.07-.27.29-.27a.77.77,0,0,0,.52-.31c.23-.29.24-.44.24-4a23.87,23.87,0,0,0-.13-3.91.94.94,0,0,0-.71-.55c-.14,0-.21-.09-.21-.29v-.29h7v2.46l-.31,0c-.23,0-.34-.13-.44-.43-.22-.7-.61-.87-2-.92l-1.22,0V97h.73c1,0,1.5-.2,1.71-.66.13-.28.26-.38.47-.38h.29v3h-.32c-.26,0-.32-.05-.32-.27,0-.52-.39-.71-1.53-.76l-1,0V99.5c0,2,0,2,1.35,2s2-.33,2.33-1.13c.17-.41.58-.52.7-.2a5.87,5.87,0,0,1-.49,2l-.18.34-3.37,0-3.37,0v-.27ZM15.58,91.61l-.28-.22L16,90.33a3.8,3.8,0,0,1,.86-1,5,5,0,0,1,1.61.34A22.07,22.07,0,0,1,16,91.83a1.16,1.16,0,0,1-.4-.22ZM.8,83.57H178.05v1.05H.8V83.57Zm67.46-2.38A1.89,1.89,0,0,1,67,79.06a1.78,1.78,0,0,1,1.1-1.36l.55-.25-.33-.19a.63.63,0,0,1-.34-.42A2.51,2.51,0,0,1,69,75.77s0-.19-.17-.43a2.27,2.27,0,0,1,1-3c.6-.31.8-.32,2.91-.19,1.22.08,1.26.09,1.2.33a1.83,1.83,0,0,0-.07.34s-.21.08-.46.08H73l.06.68c.13,1.48-.92,2.49-2.61,2.51-.88,0-1.31.21-1,.43a11.64,11.64,0,0,0,1.27.46c1.92.62,2.28.94,2.2,1.94a2.8,2.8,0,0,1-2.13,2.31,5.19,5.19,0,0,1-2.54,0Zm2.59-.72c.94-.47,1.35-1.37.84-1.83a4.93,4.93,0,0,0-2.26-.73A1.87,1.87,0,0,0,68,79.75c.19,1,1.6,1.33,2.82.72Zm.31-5.27a1.73,1.73,0,0,0,.51-2.26c-.66-.83-1.9.09-1.91,1.42a.8.8,0,0,0,.32.78C70.47,75.48,70.69,75.49,71.16,75.2Zm4.41,2.71a1,1,0,0,1-.84-1.06,5.47,5.47,0,0,1,2.61-4.55,5,5,0,0,1,3.25-.08c.09,0,0,.43-.2,1.25a9.93,9.93,0,0,0-.56,3.47c.09.19.16.2.47.09s.38-.09.46,0,.07.36-.6.59c-.89.31-1.3.25-1.43-.21l-.11-.36-.48.27a4.34,4.34,0,0,1-2.57.55Zm2-1a2.45,2.45,0,0,0,.78-.55,16.94,16.94,0,0,0,.81-3c.08-.42.07-.43-.35-.55-.78-.21-1.57.36-2.2,1.59s-.82,2.46-.39,2.76S76.71,77.28,77.59,76.86Zm55.1,1a1,1,0,0,1-.85-.83A4.89,4.89,0,0,1,133,73.59a3.58,3.58,0,0,1,3.83-1.54,3.22,3.22,0,0,1,.87.21,7.41,7.41,0,0,1-.32,1.65,14.67,14.67,0,0,0-.43,2.33l0,.76.49,0c.45,0,.5,0,.5.25s-.11.3-.67.47c-.93.28-1.36.22-1.41-.2,0-.18,0-.32-.08-.32s-.33.13-.68.28a7,7,0,0,1-1.91.52A4.62,4.62,0,0,1,132.69,77.87Zm1.95-1a3,3,0,0,0,.71-.48,10.82,10.82,0,0,0,1-3.15c.06-.36.05-.39-.4-.5a1,1,0,0,0-.87.06,4.78,4.78,0,0,0-1.85,3c-.36,1.4.09,1.73,1.45,1.06ZM8.42,77.61a13.69,13.69,0,0,1,.46-2.41c.57-2.32.56-2.51-.06-2.33-.31.08-.34.07-.34-.17s.11-.3.67-.46A5.81,5.81,0,0,1,10.22,72c.39,0,.41,0,.45.36a14.58,14.58,0,0,1-.45,2.37,12.65,12.65,0,0,0-.41,2.15c0,.14.18.16.6.1s.53-.07.49.19-.17.31-.68.46A4.81,4.81,0,0,1,9,77.86c-.47,0-.56,0-.61-.25Zm4.47,0-.26-.21.9-4c.5-2.18.88-4.11.86-4.3,0-.34-.08-.36-.53-.22-.22.07-.26,0-.26-.21s.41-.51,1.54-.62c.65-.07.67-.06.67.21s-.18,1.11-.41,2.13-.4,1.91-.4,2,.12.09.5-.08c1.3-.57,2.43-.54,2.83.08s.19,2.08-.43,3.31a5.31,5.31,0,0,1-1.8,1.87,5.63,5.63,0,0,1-3.21,0Zm2.95-.73a5.44,5.44,0,0,0,1.42-3c.18-1.23-.64-1.48-1.94-.58a1.67,1.67,0,0,0-.61.78,17.87,17.87,0,0,0-.65,2.76c0,.49,1.13.54,1.78.09Zm4.44.59c-.31-.33-.34-.42-.33-1.19a4.37,4.37,0,0,1,2.67-4.21,2,2,0,0,1,1.9.23c.26.23.31.37.31.84,0,1.2-1.09,2.11-2.67,2.22a2.18,2.18,0,0,0-.91.19,1.65,1.65,0,0,0,.05,1.15c.29.55.7.57,1.7.05.62-.31.75-.35.84-.2.21.33.12.43-.79.85a3.15,3.15,0,0,1-1.67.43C20.69,77.87,20.6,77.84,20.28,77.51Zm2.09-2.79c1-.28,1.64-1.34,1.13-1.84-.32-.32-.61-.31-1,0a4.77,4.77,0,0,0-1,1.67c-.07.22,0,.26.19.26A3.34,3.34,0,0,0,22.37,74.72Zm3.92,3.11s.2-.92.46-2a18.74,18.74,0,0,0,.47-2.48v-.51l-.47.08c-.41.06-.46,0-.46-.16s.37-.45,1.32-.69c.64-.16.89,0,.89.41v.27l.41-.28c.73-.49,1.17-.58,1.7-.35.25.12.44.27.42.34-.32,1.11-.5,1.46-.75,1.46s-.27-.06-.27-.39c0-.85-.74-.85-1.27,0a10.75,10.75,0,0,0-.95,3.29,2.37,2.37,0,0,1-.27.9,6.49,6.49,0,0,1-1.23.13Zm5.83-.11c-.13-.16,0-.58.61-3.61L33,72.86h-.4c-.21,0-.39,0-.39-.06s.26-.52.4-.52.83-.55,1.06-1.07.36-.67.74-.67.27,0,.2.37-.11.58-.15.82l-.07.44h.54c.55,0,.63.08.47.51,0,.13-.23.18-.63.18-.65,0-.54-.23-1.06,2.32-.37,1.87-.35,2,.28,1.86s.57-.13.53.16-.18.31-.62.46C33.2,77.89,32.3,77.92,32.12,77.72Zm4.7-.15c-.85-.92-.24-3.54,1.12-4.76a3.53,3.53,0,0,1,2-.88,2.22,2.22,0,0,1,1.27.59,2.13,2.13,0,0,1-.11,1.58,3.16,3.16,0,0,1-2.71,1.32h-.68V76c0,1.19.5,1.4,1.8.76a2.7,2.7,0,0,1,.8-.32.83.83,0,0,1,.1.28c0,.19-.13.32-.82.67a2.86,2.86,0,0,1-1.67.44C37.19,77.87,37.07,77.84,36.82,77.57Zm2-2.86a1.94,1.94,0,0,0,1.23-1c.16-.37.15-.43-.05-.71s-.64-.43-1.12,0a4.32,4.32,0,0,0-1,1.74c0,.16.45.16.95,0Zm43.71,3.08c-.17-.16-.06-.85.5-3.22.76-3.23,1.16-5.14,1.16-5.44s0-.25-.4-.19-.41,0-.41-.21.29-.42,1.45-.64c.59-.12.76,0,.76.34,0,.18-.39,2-.87,4.09s-.87,4-.87,4.17v.4l.53-.08c.5-.07.53-.06.49.19s-.18.3-.68.45a2.91,2.91,0,0,1-1.66.14ZM87,77.73c-.14-.23-.06-.74.44-2.68a12.74,12.74,0,0,0,.42-2c0-.21-.07-.21-.58-.09-.27.06-.32,0-.32-.17s.5-.52,1.4-.69c.65-.12.93-.06.93.21,0,.1-.24,1.17-.53,2.38A14.77,14.77,0,0,0,88.27,77c0,.07.28.09.6.05.48-.07.51-.05.47.19s-.18.3-.67.45c-.76.24-1.58.28-1.71.08Zm4.3-.06a2.3,2.3,0,0,1,.07-.84c.26-1.17.83-3.86.83-3.91s-.16-.06-.36-.06c-.5,0-.41-.32.18-.63a1.85,1.85,0,0,0,.85-1c.34-.63.43-.72.72-.72h.33l-.16.72c-.09.4-.16.77-.16.82s.26.09.58.09c.61,0,.62,0,.51.43-.07.23-.15.26-.68.26h-.6l-.39,2A12.24,12.24,0,0,0,92.66,77c.06.15.14.17.45.08.54-.16.56-.15.56.16s-.09.31-.67.47c-.91.25-1.64.25-1.74,0Zm4.8-.07c-.29-.24-.34-.38-.39-1a4.81,4.81,0,0,1,1.58-3.88c1.1-.84,2.3-1,3-.28.31.32.34.4.29.93-.11,1.15-1.21,2-2.73,2.07-.94,0-1,.16-.86,1s.57,1,1.74.43c.77-.36,1-.36,1,0s-1.4,1-2.4,1c-.74,0-.85,0-1.15-.25Zm2.5-3.11c.72-.37,1-1.19.62-1.65s-1.48.18-2,1.54l-.17.49.52-.07a3.8,3.8,0,0,0,1-.31Zm27.82,3.34s.21-.92.46-2a18.74,18.74,0,0,0,.47-2.48v-.51l-.47.08c-.41.06-.46,0-.46-.16s.2-.39,1.14-.64,1.07-.13,1.07.36v.27l.41-.28c.73-.49,1.17-.58,1.69-.35a1.38,1.38,0,0,1,.46.28s-.12.39-.26.79c-.22.6-.31.73-.53.73s-.26-.06-.26-.39c0-.8-.68-.86-1.19-.11a7.21,7.21,0,0,0-.91,2.83,9.77,9.77,0,0,1-.33,1.41,4.76,4.76,0,0,1-1.29.18Zm13.42-.14c-.1-.25,0-1,.46-3l.39-1.75-.33,0c-.39,0-.46-.43-.09-.55a2.15,2.15,0,0,0,1.11-1.13c.25-.58.35-.67.73-.67s.27,0,.2.37-.1.58-.14.82l-.07.44h.54c.55,0,.63.08.46.51-.05.13-.22.18-.62.18-.65,0-.54-.23-1.06,2.32-.38,1.87-.35,2,.28,1.86s.57-.13.52.16-.17.31-.62.46c-.77.25-1.67.27-1.76,0Zm4.7-.12c-.89-.89-.28-3.52,1.09-4.76a3.56,3.56,0,0,1,2-.88,2.22,2.22,0,0,1,1.26.59,2,2,0,0,1-.11,1.58A3.15,3.15,0,0,1,146,75.42h-.7l.05.72c.08,1.13.5,1.29,1.77.66a2.71,2.71,0,0,1,.81-.32.69.69,0,0,1,.09.28c0,.19-.13.32-.82.67a2.81,2.81,0,0,1-1.64.44c-.69,0-.82,0-1.08-.3Zm2.44-3c.81-.4,1.17-1.34.67-1.72-.34-.26-.58-.21-1,.18a4.18,4.18,0,0,0-1,1.74c0,.2.8.08,1.36-.2Zm3.53,3.24s.21-1,.47-2.1a15.81,15.81,0,0,0,.44-2.38c0-.34-.07-.37-.46-.34s-.44,0-.49-.2.06-.27.54-.45a7.49,7.49,0,0,1,1-.3c.45-.08.44-.09.73.6a7.35,7.35,0,0,0,.69-.32c.8-.41.93-.42,1.42-.12l.37.22-.25.76c-.21.64-.3.77-.52.77s-.26-.06-.26-.38c0-1-1-.82-1.49.31a14.8,14.8,0,0,0-.59,2.16c-.18.91-.36,1.67-.38,1.69a3.48,3.48,0,0,1-1.26.08Zm5.82,0s.18-.83.41-1.72a13.19,13.19,0,0,0,.44-2.43l0-.81-.42,0c-.33,0-.44,0-.48-.19s.05-.25.54-.4c1-.32,1.3-.35,1.51-.14a.79.79,0,0,1,.19.47c0,.16,0,.28.05.28s.37-.15.76-.34a4.23,4.23,0,0,1,2.56-.47c.24.13.26.19.19.73-.05.32-.24,1.22-.42,2s-.36,1.59-.38,1.82c0,.41,0,.41.46.4.34,0,.51,0,.56.16s0,.32-.75.53-1.59.25-1.68,0a13.51,13.51,0,0,1,.4-2.26c.51-2.28.54-2.54.29-2.64a2.93,2.93,0,0,0-1.67.82c-.44.4-.49.52-.76,1.67-.16.69-.33,1.5-.37,1.81s-.14.58-.22.6a2.92,2.92,0,0,1-1.23.08Zm8-.09a15.15,15.15,0,0,1,.46-2.4,16.79,16.79,0,0,0,.48-2.36c-.05-.12-.16-.13-.45,0l-.41.11s0-.12,0-.27.1-.3.61-.45c1.38-.42,1.8-.35,1.66.27,0,.15-.27,1.16-.53,2.25a13.85,13.85,0,0,0-.41,2.14c0,.12.19.15.6.09s.53-.05.49.19c-.07.49-2.3.93-2.47.48Zm4.39,0c-.08-.2,0-.76.47-2.78.5-2.23.5-2,.08-2s-.43-.32.16-.63a1.87,1.87,0,0,0,.83-.94c.3-.57.43-.7.69-.73s.36,0,.11,1.23l-.08.38h.61c.51,0,.6,0,.54.18a1.15,1.15,0,0,0-.07.35c0,.12-.16.16-.63.16h-.62l-.39,2a12.75,12.75,0,0,0-.31,2.15c.06.15.14.17.46.08.53-.16.56-.15.56.16s-.1.31-.68.47c-.89.25-1.63.25-1.73,0Zm4.78-.08c-.33-.29-.34-.32-.34-1.44a3.31,3.31,0,0,1,.44-2,3.54,3.54,0,0,1,2.06-2c1.65-.62,2.84.43,2.1,1.86a3,3,0,0,1-2.63,1.4c-.68,0-.72,0-.79.31a1.6,1.6,0,0,0,.25,1.24c.27.3.72.25,1.53-.17.61-.31.74-.35.83-.21.21.33.11.46-.67.83a3.76,3.76,0,0,1-1.61.43c-.75,0-.86,0-1.17-.25ZM176,74.47c.79-.45,1.05-1.32.5-1.67a.61.61,0,0,0-.61-.08,2.88,2.88,0,0,0-1.24,1.6l-.18.55.53-.07A3.56,3.56,0,0,0,176,74.47ZM0,77.55a.4.4,0,0,1,.27-.25c.35-.06.65-.37.89-.89a43.41,43.41,0,0,0,1.3-6.57c0-.86,0-.87-.35-1.1-.72-.46-.53-.53,1.48-.53,1.59,0,1.86,0,1.86.18s-.14.2-.35.24c-.74.15-1,.89-1.73,4.49-.65,3.37-.64,3.3-.35,3.6s.35.24,1.25.19c1.22-.06,1.66-.26,2.09-1,.34-.55.35-.56.59-.41s.13.19,0,.67a8.87,8.87,0,0,1-.45,1l-.27.46-3.12,0c-2.92,0-3.11,0-3.08-.17Zm58.87,0c0-.09.2-.26.44-.38a1.47,1.47,0,0,0,.69-.74,41.18,41.18,0,0,0,1.36-6.69c0-.79,0-.81-.36-1-.78-.5-.6-.53,2.94-.53,3.26,0,3.33,0,3.26.23s-.14.58-.22,1c-.13.67-.19.79-.4.82s-.26,0-.26-.27c0-.77-.46-1-2.09-1H63.11l-.33,1.49c-.17.81-.34,1.57-.37,1.68s0,.21,1,.21c1.16,0,1.51-.13,1.85-.67s.69-.52.6-.06c0,.18-.16.81-.27,1.4-.16.85-.25,1.07-.4,1.07s-.22-.12-.26-.34a.75.75,0,0,0-.34-.48,6.15,6.15,0,0,0-2.24-.09,20.27,20.27,0,0,0-.58,2.8c-.07.5,0,.56.22.74s.5.19,1.32.14c1.21-.06,1.64-.25,2.14-1,.22-.31.42-.48.52-.45s.2.3-.14,1.12c-.51,1.22-.22,1.13-3.79,1.13-2.62,0-3.13,0-3.13-.16Zm59.13,0c0-.09.17-.23.37-.3.74-.25,1-.91,1.72-4.68.63-3.24.61-3.76-.12-4-.13,0-.22-.13-.2-.21a13.73,13.73,0,0,1,3.28-.16c3.17,0,3.23,0,3.15.2s-.14.58-.22,1c-.12.67-.18.79-.4.82s-.25,0-.25-.32c0-.73-.57-1-2.15-.91l-.92,0-.32,1.51c-.18.84-.33,1.58-.33,1.66s1.77.2,2.19,0a1.21,1.21,0,0,0,.48-.52c.09-.22.23-.36.36-.36.28,0,.28-.08,0,1.48-.21,1.1-.29,1.31-.46,1.31a.2.2,0,0,1-.22-.21c0-.54-1.09-1-2.09-.78l-.45.08-.23,1.3c-.42,2.29-.4,2.5.23,2.76s.3.4-1.57.44c-1.53,0-1.82,0-1.82-.14Zm-68.28-2.5a1.92,1.92,0,0,1-1-1.57,1.8,1.8,0,0,1,1.73-1.75,1.64,1.64,0,0,1,1.76,1.75A1.71,1.71,0,0,1,49.72,75.09Zm59.24,0a2.18,2.18,0,0,1-.69-.59,1.35,1.35,0,0,1-.32-1,1.62,1.62,0,0,1,1.74-1.73,1.35,1.35,0,0,1,1.07.35,1.72,1.72,0,0,1,.28,2.49,1.75,1.75,0,0,1-2.08.52ZM39.38,71c-.23-.25-.24-.22,1.08-1.73l.44-.51.67.15a1.75,1.75,0,0,1,.66.23,29.55,29.55,0,0,1-2.59,2.09,1,1,0,0,1-.26-.23Zm59.21,0-.26-.21.88-1a8,8,0,0,1,1-1,3.62,3.62,0,0,1,1.25.36c0,.08-2.19,1.82-2.47,2-.07,0-.24,0-.38-.14ZM176,71l-.28-.21.91-1a8.12,8.12,0,0,1,1-1,4.75,4.75,0,0,1,1.27.34c0,.06-2.2,1.84-2.49,2C176.3,71.18,176.11,71.12,176,71ZM9.86,70.41a.87.87,0,0,1,.7-1.39.68.68,0,0,1,.76.76A.86.86,0,0,1,9.86,70.41Zm78.55.08a1,1,0,0,1,0-1.23.83.83,0,0,1,1.4.47A.93.93,0,0,1,88.41,70.49Zm77.29-.08c-.48-.48,0-1.39.73-1.39a.76.76,0,0,1,.51,1.35.87.87,0,0,1-1.24,0Zm-102-3.33c-.18-.2-.14-.27.7-1.18l.9-1,.67.15a1.66,1.66,0,0,1,.65.22,19.62,19.62,0,0,1-2.55,1.95.42.42,0,0,1-.37-.16Z"/><path id="path10" class="cls-1" d="M102.43,60.52l.27-.7a15.14,15.14,0,0,1,1.63-3.3,11.89,11.89,0,0,1,3-3.1,6,6,0,0,1,3.11-.42c1.08.1,4.41.64,5.75.94a8,8,0,0,0,3.23.05A3.75,3.75,0,0,0,122,49.15c-.4-.78-.33-1,.64-1.91a6.08,6.08,0,0,0,.88-1,3.55,3.55,0,0,0-.83-1.56.92.92,0,0,1-.46-.22l-.27-.22.57-.29c.79-.41,1.38-1,1.38-1.48a3.27,3.27,0,0,0-.37-1,2.11,2.11,0,0,1-.28-1.83c.15-.28.4-.39,1.62-.74,1-.3,1.41-.6,1.55-1.26a2,2,0,0,0-.27-1.6c-.27-.55-2.06-3.29-2.58-4a12.9,12.9,0,0,1-1.81-3.29,2.9,2.9,0,0,1-.07-1.93c.39-2.26.16-4.12-.93-7.76a28.19,28.19,0,0,0-1.28-3.87c-.46-.92-.4-1.13.54-1.9a6.41,6.41,0,0,0,.93-.88,1.61,1.61,0,0,0-.57-1.85c-.34-.18-.53-.06-.88.58s-.37.58-.65.58c-.46,0-.54-.19-.24-.59s.31-.54-.23-.61-.61-.21-1.48-1.09A10.17,10.17,0,0,0,113.35,7c-.72-.33-1-.48-.71-.44s1,.1,1.76.14c2.16.11,2.69-.18,3.19-1.73.34-1.06.51-1.55-.28-2.28L114.43,0H179V60.52Z"/><path id="path12" class="cls-1" d="M47.37,60.52a8.27,8.27,0,0,1-.9-.1,17.94,17.94,0,0,1,2.9-1.87c.78-.47,1.1-.72,1-.78a9.35,9.35,0,0,0-1.51-.17,3.55,3.55,0,0,0-1.74.11,19.72,19.72,0,0,1-1.94.58c-2.1.56-2.81.93-3.48,1.87l-.26.36H0V0H82.21l-1.6,1a16.77,16.77,0,0,0-2.26,1.34A13.47,13.47,0,0,0,75,7.05a1.57,1.57,0,0,1-.77,1,9.69,9.69,0,0,0-2.31,2.51,52.71,52.71,0,0,0-3.2,5.64c-.56,1.42-.51,2.49.32,6.71.37,1.86.77,3.75.89,4.19a11.69,11.69,0,0,1,.29,1.69,4.48,4.48,0,0,0,.62,2.1,2.48,2.48,0,0,1,.25.73.49.49,0,0,0,.24.34.58.58,0,0,1,.23.44c0,.2.26.59.85,1.23,1.33,1.46,2.29,2.83,2.29,3.26s-.52.45-1.36.24a6.41,6.41,0,0,1-3-2c-.53-.51-1-.86-1-.77a4.78,4.78,0,0,0,.8,1.06c.88,1,1,1.25.83,1.61s-.57.4-1.12.25-1,.06-.9.59c.07.32.05.35-.13.29A9.07,9.07,0,0,0,67,37.79c-.64-.07-.69-.09-1.08-.64a1.57,1.57,0,0,0-.84-.69,51.83,51.83,0,0,0-6-1,21.21,21.21,0,0,0-5.83-.2A5.24,5.24,0,0,0,51,35.8c-1.21.61-3.31,2.54-3.31,3,0,.23.46.15,1-.18,1.6-1,7.09-2.39,9.78-2.5,1.33,0,1.26,0-.34.3-.44.08-1.49.35-2.33.6s-2.28.63-3.21.85-2,.5-2.33.63l-.64.23h1c5,.06,10.79,1.66,13.13,3.66a2.86,2.86,0,0,0,2.85.81,13.09,13.09,0,0,0,5.81-2.14c.49-.42.91-.59.91-.37a14.59,14.59,0,0,1-1,2.93c-.32.57-.34.65-.18.77s.16.17.13.2,0,.1.17.14c.38.12.29.24-.32.4s-1.07.42-1.07.6.09.11.19.11c.29,0,.07.21-.32.3s-.32.1-.2.18.12.1,0,.1-.14.12-.14.27-.11.31-.35.41c-.58.26-.42.4.38.33.4,0,.65,0,.55,0s-.75.33-1.45.66-1.63.71-2,.85-.77.34-.8.46.18.19.73,0c.1,0,.18,0,.18,0A26.53,26.53,0,0,1,65.14,51a27.7,27.7,0,0,0-3.08,1.83,1.28,1.28,0,0,1-.6.38.49.49,0,0,0-.36.3c-.22.49-.18.55.36.46.8-.14,1.17-.13,1.22,0s0,.14-.17.14a.54.54,0,0,0-.37.17.82.82,0,0,1-.45.2.82.82,0,0,0-.55.41,1,1,0,0,1-.46.43c-.13,0,0,0,.4,0,5.24-.39,6.22-.58,8.33-1.65a20.24,20.24,0,0,0,5-3.63,4.89,4.89,0,0,1,.78-.71c.18,0,.09.65-.18,1.22-.46,1-1.43,1.91-3.43,3.23a16.2,16.2,0,0,1-2.41,1.4,30.3,30.3,0,0,1-4.3.9c-5.52.79-7.63,1.4-9.72,2.78a2.15,2.15,0,0,1-.81.39,1.14,1.14,0,0,0-.59.32c-.63.53-.17.44,1.13-.23s2-.8.91-.16a6.6,6.6,0,0,1-3.24,1.28Zm-6.85-6.75c.21-.09.91-.48,1.54-.86s1.4-.81,1.68-.94l1.81-.82c1.47-.66,3.64-1.29,3.76-1.09a1.45,1.45,0,0,0,.72.17c.49,0,.58.07.38.14s-.27.14-.27.19c0,.22,1.09.15,1.55-.09a3.16,3.16,0,0,1,.91-.23c.39-.05.57-.12.57-.24s.1-.15.46-.09,1.54-.12,4.37-.83a26.79,26.79,0,0,0,4.65-1.55l.92-.42-.92-.59c-2.25-1.45-4.51-2.33-9.48-3.72a12.71,12.71,0,0,1-1.69-.55c-.07-.08,0-.09.12,0,.5.18.87.22.87.08s-.37-.31-1.11-.41-1.11-.29-.64-.3c.73,0-.52-.46-1.91-.7-1-.18-1.09-.22-.66-.43s.78-.87.67-1.15-.2-.21-.76.17a7.81,7.81,0,0,0-2.62,3.14c-.32.7-.21.77,1.42.84,1.34,0,1.36.06,1,.24A3,3,0,0,1,47,44c-1,.14-1.47.59-1,.86.14.07.08.14-.26.3s-.41.22-.23.33a1.75,1.75,0,0,0,.75.07.91.91,0,0,1,.79.19l.25.23-.51.33a2.3,2.3,0,0,0-.72.7,6.66,6.66,0,0,1-.86,1.08,3.11,3.11,0,0,0-.67.9,5.41,5.41,0,0,1-1.19,1.15c-1.77,1.41-2.54,2.19-2.54,2.56a.58.58,0,0,1-.27.49c-.55.36-.84.78-.54.78a2,2,0,0,0,.5-.16Zm13.62-1.36a4.26,4.26,0,0,0,1.12-.3l.33-.2L55,51.63l-.56-.28-.56.23L53,52c-.86.33-1,.77-.17.65Zm-19.71-5.3a41.81,41.81,0,0,1,6.75-5.93c.79-.55,1.35-.87,1.37-.78s.42.16,1-.19.95-.81,1.74-2.24a6.84,6.84,0,0,1,2.31-2.76l1.81-1.41c.64-.51.79-.59.74-.39s0,.25.07.25A4.61,4.61,0,0,0,51.74,33c.07-.21-1.19-.42-2.13-.36a3.67,3.67,0,0,0-1.87.61,26.62,26.62,0,0,0-6.5,5.25,24.12,24.12,0,0,1-4.54,3.87c-.27.13-.48.4-.8,1.06a39.32,39.32,0,0,1-2.85,4.65c-1,1.42-1.24,1.91-.45,1,.27-.31,1.1-1.2,1.83-2Zm26,12.74A26.26,26.26,0,0,1,66,59.06c2.46-.11,2.77-.17,4.25-.86.47-.23.65-.27.72-.16s.91-.26,2.48-1.35c.64-.45,1.55-1,2-1.28.7-.38.92-.44,1.26-.38s.46,0,.93-.38A5.27,5.27,0,0,1,81.13,53c.33,0,.44,0,.44.18s.06.17.17.12c.33-.12.18,0-.65.64s-.87.93.11.25,1-.66,1-.39-.36.53-1,1.08A38.58,38.58,0,0,0,77,59L75.5,60.52H57.07Zm0-23.7a.9.9,0,0,1,.4,0c.12,0,0,.05-.2.05S60.3,36.17,60.42,36.15Z"/><path id="path14" class="cls-1" d="M114.71,31.72c-.51-.08-.25-.27.37-.27s.94-.24.94-.69c0-.21,0-.24-.24-.18a.33.33,0,0,1-.41-.15,1,1,0,0,0-.73-.3c-.66-.09-1.74-.73-1.54-.93a2,2,0,0,1,.76-.17c.6-.05.64-.07.77-.45a.58.58,0,0,1,.44-.46,1.74,1.74,0,0,0,.6-.34,11.38,11.38,0,0,1,1.16-.84c.81-.53,1.31-1.09,1.13-1.27a7.61,7.61,0,0,0-2.76-.32,15.51,15.51,0,0,0-3.28.69c-.71.27-.5,0,.47-.54a12.88,12.88,0,0,1,5.22-1.5,9.73,9.73,0,0,1,2.57.6c.42.35,0,1.58-.82,2.2l-.33.25.27.29.27.29-.28.22a1,1,0,0,1-.46.22,1.36,1.36,0,0,0-.56.37c-.31.31-.36.41-.26.65a.63.63,0,0,1,0,.52,1.79,1.79,0,0,0-.06.86c.1.77,0,1.05-.6,1.21a10.7,10.7,0,0,1-2.62,0Z"/></g></g></svg>