<svg xmlns="http://www.w3.org/2000/svg" viewBox="0 0 107 86.57"><defs><style>.cls-1{isolation:isolate;}.cls-2{fill:#fff;}</style></defs><title>greenhand</title><g id="Layer_2" data-name="Layer 2"><g id="Layer_1-2" data-name="Layer 1"><g class="cls-1"><path class="cls-2" d="M79.07,0c-.68,22.31-37.86,16.51-30.62,42.42,0,0,0,0,0,.07.09.32.18.65.29,1a1.88,1.88,0,0,0,.17.47,14.63,14.63,0,0,0,5.37,6.81,39.65,39.65,0,0,0,4.07-2c9.39-5.45,15.48-14.06,17.15-22.86a36.69,36.69,0,0,1-7.7,16.71A37.69,37.69,0,0,1,56.54,52.1c2.48.82,10.06,2.86,16.63.16,8.94-3.66,16-16.08,5.9-52.26M23.79,44c-6.39.27-16.29,5.11-21.48,7.87a4.37,4.37,0,0,0-2,5.51L8,76.31a4.39,4.39,0,0,0,6.14,2.22l3.42-1.82a9.38,9.38,0,0,1,8.52-.18l15.78,7.64a24.07,24.07,0,0,0,23.3-1.29l39.11-24.57a5.9,5.9,0,0,0-3.17-10.87,5.78,5.78,0,0,0-3.24,1l-23.5,13a7.64,7.64,0,0,1,.18,1.8A8.86,8.86,0,0,1,72,69.36,8.62,8.62,0,0,1,66,71.94H64c-9.47,0-21.21-.49-27.33-2.66l-2.6-1.23a1.15,1.15,0,0,1-.87-1.15,1.24,1.24,0,0,1,1.22-1.26,4.74,4.74,0,0,1,.49.11c1,.33,1.87.64,2.6.93,6.4,2.29,20,2.58,28.05,2.53a6.15,6.15,0,0,0,6.19-5.3,6,6,0,0,0-5.71-6.64c-7-.24-18.2-1.23-21.54-5.15-5-5.77-11.78-8.57-20.73-8.16"/></g></g></g></svg>