<svg xmlns="http://www.w3.org/2000/svg" viewBox="0 0 118.01 96.03"><defs><style>.cls-1{fill:#373930;}</style></defs><title>htgov</title><g id="Layer_2" data-name="Layer 2"><g id="Layer_1-2" data-name="Layer 1"><path class="cls-1" d="M59,0h1.14l.4.11A5.48,5.48,0,0,1,63,1.1,1.78,1.78,0,0,1,63.46,3a4.48,4.48,0,0,0-.11,2.06,2.47,2.47,0,0,1-.77,2.31.88.88,0,0,1-.71.23,8.45,8.45,0,0,0-.87,0V12s.54-.4.76-.58a19.33,19.33,0,0,1,5.37-3.35,12.31,12.31,0,0,1,9.71,0,12,12,0,0,1,2.53,1.44A2.67,2.67,0,0,1,78,9.5c-.43-.11-.85-.24-1.31-.38l.94,1.39,0,0-3-1.28a6.5,6.5,0,0,0,.51.86,1,1,0,0,1,.05.18.46.46,0,0,1-.2,0,4.85,4.85,0,0,1-.65-.31c-.34-.21-.67-.43-1-.68L73.64,11,72,10.24c0,.11,0,.18,0,.26,0,.41,0,.42-.42.46A10.78,10.78,0,0,0,70,11.2a8.09,8.09,0,0,0-2.34,1.1,1.18,1.18,0,0,0,.27,0,36.21,36.21,0,0,1,7.2-.92A20.79,20.79,0,0,1,81.2,12a7.52,7.52,0,0,1,3.58,1.91c.32.34.6.72.92,1.11a3.15,3.15,0,0,1-2.88-.87l.09,1.29-2.12-1.58c.09.5.45.89.41,1.43a3.9,3.9,0,0,1-.63-.38c-.37-.28-.72-.57-.57-.9v1.51a11.9,11.9,0,0,1-2.77-2.35l.23,1.21-2-.84c-.05.32.12.47.37.59,1.33.63,2.66,1.29,4,1.89a4.73,4.73,0,0,1,2.88,3c.18.62.28,1.25.42,1.88l-.09,0a7.58,7.58,0,0,1-1.75-1.55l-1,1.95L80,19h-.06l-.6,1.57h-.06c-.33-.95-.65-1.89-1-2.83h0c-.07.58-.14,1.16-.22,1.8l-1.84-2.34-.86.64c-.24-.54-.46-1.06-.71-1.6l-.6,1c-.24-.11-.45-.22-.68-.31a1.32,1.32,0,0,0-1.08-.06.26.26,0,0,1-.34-.1l-1-1.19-.33,1-1.14-1.28c-.09.17-.16.31-.23.46l-.21.46.27.09a34.42,34.42,0,0,1,6.28,2.74,13.91,13.91,0,0,1,4,3.18c0,.05,0,.15.06.23a1,1,0,0,1-.29,0,1,1,0,0,1-.21-.1l-1-.5-.56,1.65-.51-1.22a2.28,2.28,0,0,1-.07.3,2,2,0,0,1-.15.28,2.21,2.21,0,0,1-.23-.28c-.26-.43-.47-.46-.82-.08-.15.16-.28.33-.45.52l-.2-.93h0L74.7,23h-.06l-.56-1.24c-.13.31-.24.59-.38.86,0,.11-.17.18-.26.27a1.45,1.45,0,0,1-.24-.26c-.33-.65-.64-1.32-1-2a3.13,3.13,0,0,0-.22-.33,6.79,6.79,0,0,1-.22,1.4c-.39-.4-.4-.91-.65-1.31l-.48.86-.14,0-.17-1.09a4.4,4.4,0,0,1-.29.54.64.64,0,0,0,0,.85,10.71,10.71,0,0,1,1.62,3.35,3,3,0,0,1,.06,1.51l-1.55-1.77-.14.26c-.18.54-.35,1.09-.53,1.63a2.21,2.21,0,0,1-.18.34h-.08a2,2,0,0,1-.14-.3c-.06-.26-.1-.53-.15-.79l-.24-1.12h-.07L68.18,26l-.13,0c-.2-.7-.12-1.44-.28-2.17l-.52,0,.08.78-1.89-.82a4.31,4.31,0,0,0,.43.65c.4.58.81,1.16,1.19,1.76a2.89,2.89,0,0,1,.23.72l-.08,0-.69-.57a5.68,5.68,0,0,1,.43,3l-.86-.91-.06,0A3.08,3.08,0,0,0,66,29,5.33,5.33,0,0,1,65,32.88c0,.07-.15.1-.22.16s-.12-.18-.12-.27c0-.72.07-1.45.1-2.17,0-.3,0-.59,0-.89l-.12-.05a2.78,2.78,0,0,1-.21.27c-.7.71-1.39,1.42-2.1,2.13a1.48,1.48,0,0,1-.32.21l-.07-.05a3.29,3.29,0,0,1,.09-.43c.29-.77.59-1.54.89-2.31a2.46,2.46,0,0,0,.09-.29A10.55,10.55,0,0,0,62,30c-.65.61-.58.34-.43,1.27a1.09,1.09,0,0,1,0,.56.78.78,0,0,0,0,.58c.18.69.35,1.38.53,2.08-.23,0-.26.14-.22.31s.09.48.13.72l.27,1.53-.29.09.84,9.7a.64.64,0,0,0,.13-.28q.93-3.81,1.85-7.62c0-.19.12-.24.31-.23h1.16l1.39-5.69q.34-1.36.66-2.73c0-.14.09-.24.29-.15l-.15,1.34c-.19,1.63-.38,3.26-.58,4.89-.14,1.25-.29,2.5-.44,3.74,0,.07-.05.12-.08.19l-.09,0c.29-2.48.57-5,.86-7.44l-.08,0q-.89,3.69-1.8,7.39l.43.05-.22,0Q65.3,45,64.13,49.72a.4.4,0,0,0,.16-.21q1.47-4.07,2.93-8.11c.36-1,.73-2,1.08-3a.38.38,0,0,1,.48-.3c.16,0,.33,0,.49.05.31.07.43-.07.54-.33q1.44-3.61,2.91-7.21c0-.08.15-.13.23-.19a.66.66,0,0,1,0,.27c-.18.86-.38,1.71-.57,2.56L71,39.77c0,.11-.08.21-.11.32l-.07,0c.58-2.57,1.15-5.15,1.73-7.72l-.07,0c-1.06,2.59-2.11,5.19-3.18,7.67h1.27c-.64.18-.64.18-.8.59Q67.85,45.53,66,50.46c0,.1-.07.19-.1.28l.09,0a8.16,8.16,0,0,0,.68-1c1.06-2,2.1-4,3.15-6l1.54-3c.17-.33.18-.34.56-.25a3.25,3.25,0,0,1,.43.08.33.33,0,0,0,.45-.2q2-3.51,4-7a.74.74,0,0,1,.12-.17.2.2,0,0,1,.17,0s.06.09,0,.13a2.34,2.34,0,0,1-.09.24Q76.1,36,75.19,38.38c-.47,1.26-.94,2.53-1.4,3.79-.06.16-.12.34-.31.31a2.45,2.45,0,0,0,.24-.38l2.52-6.76a2.17,2.17,0,0,0,.07-.24l-.06,0C74.88,37.52,72.11,43,72.11,43h1.1a.75.75,0,0,1-.29,0c-.38-.07-.54.15-.66.47-.22.54-.47,1.06-.71,1.59l-.45,1,0,0q5.12-5.65,10.23-11.34a5.56,5.56,0,0,1-1.59-2.26.36.36,0,0,1,0-.29,2.57,2.57,0,0,1,2.75-1A.32.32,0,0,0,83,31.1c.31-.49.64-1,1-1.46l1.31.81c0-.35,0-.63,0-.91a.56.56,0,0,1,.29-.62l4.18-2.76L90,26l-1,2.24-.05,0L89.48,27l-.41.2L85.9,29.26a.65.65,0,0,0-.3.57,6.6,6.6,0,0,0,0,.77.56.56,0,0,0,.17.38c.15.14.38.18.52.33.37.39.71.8,1.08,1.23l-.32.22a8.45,8.45,0,0,0-3-2.52l-.91,1.37c1,.58,1.73,1.52,2.74,2.09a23.76,23.76,0,0,1,1.92,1.42l1.81,1.35-.84,1.47c-.27-.25-.32-.26-.6-.06l-.93.68c-.31.22-.35.21-.5-.14s-.44-1-.67-1.45L86,37a14.52,14.52,0,0,1,1,5.64h.07l2.79-2.16c.14-.1.06-.18,0-.29-.19-.61-.39-1.23-.56-1.85,0-.09.05-.24.12-.33s.23-.12.32-.21a1.92,1.92,0,0,1,1.78-.6.71.71,0,0,0,.64-.2c.4-.39.82-.77,1.24-1.15l1.08,1a8.33,8.33,0,0,0,.18-.93.52.52,0,0,1,.38-.51l4.54-2,.32-.11c-.08.13-.12.21-.17.28-.83,1.28-1.66,2.56-2.47,3.85a.86.86,0,0,1-.87.39l-.81,0c.34,0,.68,0,1,0a.49.49,0,0,0,.48-.26c.66-1,1.34-2,2-3l.17-.3-.33.12-2.89,1.23c-1,.43-1,.43-1.18,1.52a.68.68,0,0,0,.74.78l-.25.09.92,1.37-.39.15a.77.77,0,0,0-.06-.23c-.33-.49-.64-1-1-1.46s-.87-.91-1.32-1.38c-.42.44-.8.83-1.17,1.23A4,4,0,0,1,93,38c.58.57,1.13,1.17,1.71,1.75a1.2,1.2,0,0,0,.27.16.84.84,0,0,0,.12.23c.85,1,1.71,1.89,2.57,2.83a.66.66,0,0,1,.18.64,8.7,8.7,0,0,0-.13.87.38.38,0,0,1-.25.34c-.64.26-1.27.55-1.9.83-.28.12-.35.09-.37-.22a9.61,9.61,0,0,0-.73-2.63s0,0-.1-.12A20,20,0,0,1,94.31,47c-.17,1.4-.4,2.8-.61,4.2l2.36-1.3c-.17-.73-.35-1.43-.49-2.15a.67.67,0,0,1,.09-.51,2.52,2.52,0,0,1,1.18-.66,2.32,2.32,0,0,1,1.52.34.36.36,0,0,0,.43,0c.42-.34.86-.66,1.31-1l1,1.2c.11-.35.22-.62.29-.9a.56.56,0,0,1,.47-.45l3.07-.78,2-.53c-.36.52-.48.61-1,.73l-3.75,1a.64.64,0,0,0-.53.53c-.07.28-.19.55-.31.88.28.6.28.6,1,.68l1.1.14c-.6.13-1.15-.15-1.75-.08l.66,1.5-.25.08a2.29,2.29,0,0,0-.07-.28,9.8,9.8,0,0,0-1.47-2.62l-.42-.52-1.23,1c.63.9,1.23,1.79,1.85,2.66,0,.07.18.08.28.09a.82.82,0,0,0,.26,0l-.44.19.17.24c.82,1.08,1.64,2.17,2.47,3.25a.31.31,0,0,1,0,.41c-.19.36-.37.72-.53,1.09a.36.36,0,0,1-.43.25,1.19,1.19,0,0,0-.45.08l-1.91.59c-.09-1.12-.18-2.21-.28-3.3H99.9l-.06.34a7.55,7.55,0,0,1-.92,2.93,1.7,1.7,0,0,0-.26,1.17l0,.29a9.32,9.32,0,0,1-.31,4.1c-.06.19-.12.38-.18.61l.44,0a2.5,2.5,0,0,0,0-.32.33.33,0,0,1,.25-.43c.3-.1.59-.22.88-.35s.31,0,.33.18a1.52,1.52,0,0,1,0,.21c.18,1.44.36,2.87.53,4.3.05.38.08.76.13,1.14H99.05c-.11-.42-.11-.42-.54-.38-.7.08-1.4.14-2.1.24a.56.56,0,0,0-.37.23c-.4.57-.78,1.15-1.15,1.74a1,1,0,0,0-.11.53,7.71,7.71,0,0,1,0,2.49,8.76,8.76,0,0,0-.28-3.14,7.77,7.77,0,0,0-1.43-2.84l-.52.4L92,66.7q3.28,5.35-1.16,9.75l.9,1a8.35,8.35,0,0,0,2.76-4.2c-.14.35.09.43.32.51.45.15.9.31,1.34.48a1,1,0,0,0,.79,0c1.41-.65,2.81-1.3,4.22-1.93a4.77,4.77,0,0,0,2-1.36.88.88,0,0,0,.17-.35c.11-.37.2-.76.3-1.17a6.31,6.31,0,0,1,.54.39c.18.17.29.13.46,0,1.9-1.67,3.81-3.32,5.72-5a2,2,0,0,1,.33-.26.39.39,0,0,1,.53,0,.44.44,0,0,1,.09.54,2.56,2.56,0,0,0-.11.24c.44.21.87.39,1.28.61a1,1,0,0,1,.43,1.13c-.13.46-.33.9-.5,1.34-.1.26-.07.33.2.4l1.21.28,2.68.59c.18,0,.35.12.33.35s-.19.26-.37.29a12,12,0,0,1-3,.06,5.43,5.43,0,0,1-2.23-.62.8.8,0,0,1-.36-1.24c.11-.23.24-.45.38-.72l-.36,0c-.67,0-1.34,0-2-.08a.92.92,0,0,0-.69.23l-2.92,2.55a1.14,1.14,0,0,0-.16.15l.61,1-1.71.14c.36-.39.91-.17,1.42-.3A3.34,3.34,0,0,0,104.06,70a5.62,5.62,0,0,0-.16.57,1.48,1.48,0,0,1-.54,1L99,75.46a.9.9,0,0,1-.24.12l.09.11c.22,0,.43.06.65.11a.59.59,0,0,0,.58-.19l3.25-3.14.21-.18c-.11.24-.2.45-.3.65a.35.35,0,0,1-.11.15A3.07,3.07,0,0,0,102,74.66a5.51,5.51,0,0,1-.33.75l-.18.4.92.31c.07,0,.15,0,.2,0,.64.42,1.3.82,1.92,1.26a10.87,10.87,0,0,0,4,1.74c.86.2,1.71.48,2.59.73a13.09,13.09,0,0,0-1.2-4.18c1.16.2,5.1,3.89,5.43,5.08l-2-.61v-.1a6.68,6.68,0,0,1,1.58.3,13.77,13.77,0,0,0-1.11-1.28c-.91-.86-1.84-1.69-2.77-2.52a2.65,2.65,0,0,0-.4-.24l-.07.07a14,14,0,0,1,1,4.22l.8-.44a9.69,9.69,0,0,1,.21,3.19l-8.23-3.65-.59,1.18,8.66,3.79c-.11.47-.22.89-.3,1.3a.25.25,0,0,0,.25.33,4.9,4.9,0,0,0,.77,0,.37.37,0,0,0,.24-.25,2.17,2.17,0,0,1,1.22-1.76l.65-.33c-.4-.54-.79-1.05-1.15-1.58a4.54,4.54,0,0,1-.74-1.77,1,1,0,0,0,.58.48c1.25.53,2.5,1.09,3.74,1.63a.46.46,0,0,1,.29.43q0,6.28,0,12.57V96H.44C.29,96,.15,96,0,96V82.24a3.18,3.18,0,0,0,.32-.16L2,81a5,5,0,0,1,2.1-.74c.36,0,.72,0,1.07-.1,1-.22,2-.49,3-.71a12.35,12.35,0,0,0,3.59-1.2,37.57,37.57,0,0,1,3.45-2.08c.18-.08.15-.23.11-.39-.16-.74-.33-1.49-.49-2.24a2.5,2.5,0,0,0-.61-1.29,1.33,1.33,0,0,0-1-.49c-.35,0-.69,0-1.08-.06l.63-1c-1.16-1-2.29-2-3.44-3a.33.33,0,0,0-.23-.07c-.34,0-.7,0-1,.06l-1.65.12.22.37c.12.23.25.46.36.7a.44.44,0,0,1-.17.6,7.43,7.43,0,0,1-1.29.65,8.16,8.16,0,0,1-3,.3,12.28,12.28,0,0,1-1.36-.14C1,70.26.84,70.11.71,70a1.82,1.82,0,0,1,.34-.34,1.7,1.7,0,0,1,.51-.17l2.25-.46c.51-.1,1-.23,1.55-.35a12,12,0,0,1-.83-2.22.28.28,0,0,1,.1-.27,6.5,6.5,0,0,1,1.86-.89l-.09-.18c-.15-.3-.12-.54.09-.69s.45,0,.64.11l5.85,5,.44.36.8-.56c.12.48.21.92.34,1.36l0,0a3.28,3.28,0,0,0,2.33,1.39,3.45,3.45,0,0,1,2,.74c.89.71,2,1.63,3.2,1.26.52-.16,1-.35,1.53-.53,0,0,0,0,0-.07a9.21,9.21,0,0,1-.27-4.4.12.12,0,0,0,0-.1c-.46-.73-.95-1.45-1.47-2.14a.13.13,0,0,0-.1-.06c-.74-.13-1.49-.2-2.24-.27a3.73,3.73,0,0,0-.47,0L19,67H17.52c.09-.73.18-1.44.27-2.15.15-1.27.31-2.54.46-3.81,0-.21.11-.29.32-.19s.38.16.58.24c.61.23.61.23.62.86,0,0,0,0,0,0h.87a2.65,2.65,0,0,1-.08-.29,7.94,7.94,0,0,1-.5-2.59c0-.83.1-1.65.12-2.48a1.17,1.17,0,0,0-.12-.65,6.26,6.26,0,0,1-.88-2.1c-.12-.49-.2-1-.3-1.48h-.07l-.31,3.36c-.32-.1-.57-.19-.83-.25L16,55.08a.45.45,0,0,1-.23-.2c-.18-.35-.34-.71-.53-1.06a.47.47,0,0,1,0-.58c.61-.77,1.19-1.56,1.79-2.35.28-.38.57-.75.88-1.16l-1.52-.49c.23-.51.45-1,.7-1.55h-.3c-.32.05-.65.09-1,.16a.64.64,0,0,1-.68-.23c-1-1.08-1.92-2.14-2.88-3.2l-.55-.62.1,0,5.1,1.31a.72.72,0,0,1,.58.62,7.57,7.57,0,0,0,.28.78l1-1.22,1.51,1.16A9.4,9.4,0,0,1,21.57,46a2.12,2.12,0,0,1,1.63.6.5.5,0,0,1,.23.57c-.17.74-.33,1.48-.51,2.26l2.42,1.34c-.4-2.87-1-5.68-.73-8.57a.14.14,0,0,0-.07.06,8.23,8.23,0,0,0-.72,2.56c0,.34-.12.39-.42.26-.64-.28-1.29-.56-1.94-.86a.43.43,0,0,1-.2-.27c-.07-.33-.08-.68-.14-1a.59.59,0,0,1,.17-.55l2-2.15.84-.94-1.4-.72.95-1.44-.41,0c-.29,0-.57,0-.86,0a.65.65,0,0,1-.63-.35c-.23-.4-.5-.79-.76-1.18l-2-3.12a2.08,2.08,0,0,1,.3.1l4.63,2a.71.71,0,0,1,.49.71,5.31,5.31,0,0,0,.16.77l1.1-1c.45.42.89.81,1.31,1.22a.51.51,0,0,0,.49.16,2.19,2.19,0,0,1,2,.67c.06.06.13.15.19.15.38,0,.29.21.24.41-.2.68-.41,1.36-.63,2.09l3,2.33a17.67,17.67,0,0,1,.8-5.45,9.21,9.21,0,0,0-.51,1c-.17.37-.22.39-.56.15l-.85-.62c-.23-.18-.45-.3-.7,0-.29-.52-.57-1-.84-1.52l3.86-2.87-1.59-1.19L33,30.48l0-.1c-.41-.08-.82-.18-1.23-.24a.54.54,0,0,1-.49-.37q-.95-2.19-1.88-4.38c-.05-.11-.08-.22-.15-.39l.26.15L33.77,28a.56.56,0,0,1,.29.54c0,.32,0,.63,0,1l1.34-.83c.34.51.67,1,1,1.5a.32.32,0,0,0,.43.16,2.42,2.42,0,0,1,1.28,0,3.68,3.68,0,0,1,1.63,1.05.34.34,0,0,1,0,.24A6,6,0,0,1,38.08,34L48.49,45.55l0,0c0-.09-.06-.18-.1-.27-.3-.68-.63-1.35-.89-2.05s-.4-.87-1.23-.78h-.09c-.37,0-.44,0-.56-.36L44.23,38c-.59-1.69-1.2-3.38-1.79-5.07a1.57,1.57,0,0,1,0-.37l.09,0a1.73,1.73,0,0,1,.25.3l3.72,7c.45.84.27.71,1.14.53h.08c.22-.1.32,0,.42.2L50,44.42q1.42,2.89,2.86,5.78a10.32,10.32,0,0,0,.68,1l.09-.05a1.59,1.59,0,0,0-.07-.2l-2.47-6.93c-.44-1.22-.88-2.44-1.31-3.66-.15-.4-.2-.43-.62-.42h-.52c-.72-3.41-1.45-6.78-2.16-10.15,0-.09,0-.19.07-.28.07.07.17.12.21.2l2.85,7.41c.25.64.25.64.92.62h.17c.4,0,.43,0,.55.37l3.57,10.43.6,1.73a.22.22,0,0,0,0-.17c-.39-1.67-.77-3.33-1.16-5s-.73-3.13-1.09-4.7c0-.23-.14-.31-.37-.28s-.43,0-.67,0c-.4-3.62-.8-7.22-1.2-10.83.25-.08.28.09.31.22.22,1,.44,1.94.67,2.9l1.32,5.73c0,.21.13.29.34.27s.59,0,.89,0,.28.06.33.26q.64,2.88,1.31,5.75l.27,1.12c.11-1.2.17-2.39.23-3.58.09-1.64.18-3.29.26-4.93a1.36,1.36,0,0,0-.08-.32c0-.08-.1-.18-.09-.25.16-.72.33-1.44.49-2.15a1.35,1.35,0,0,0,0-.4,1.93,1.93,0,0,1-.08-.46c.12-.56.26-1.11.4-1.66a.5.5,0,0,0-.14-.55c-.73-.77-1.45-1.56-2.18-2.34L55,28.74l-.1,0L55,32.26l-.1,0a2.8,2.8,0,0,1-.28-.31,5.92,5.92,0,0,1-1-4.19c0-.12,0-.24,0-.43l-.95,1.09a6.94,6.94,0,0,1,.4-3.25l-.75.67a9.9,9.9,0,0,1,1.81-3.43l-1.83.82.11-.84-.53,0a14.07,14.07,0,0,1-.31,2.28l-.11,0-.53-1.46a22.12,22.12,0,0,1-.6,2.46.92.92,0,0,1-.21-.33c-.15-.5-.28-1-.43-1.51,0-.17-.14-.33-.24-.57L47.86,25.2a1.6,1.6,0,0,1,0-.31A12.22,12.22,0,0,1,48,23.28a12.06,12.06,0,0,1,1.62-3.42c.06-.1.16-.24.13-.32-.11-.33-.26-.65-.39-1l-.06,0-.16,1.14-.15,0-.5-.93a6.94,6.94,0,0,1-.63,1.4c-.3-.48-.09-1-.28-1.49a5.74,5.74,0,0,0-.29.51c-.29.65-.57,1.31-.87,2,0,.09-.13.23-.17.22a.49.49,0,0,1-.28-.19,1.32,1.32,0,0,1-.18-.4c-.08-.19-.14-.39-.23-.62L45,21.64l-.31-1h0l-.19,1-.62-.67c-.19-.19-.32-.18-.48,0a2.2,2.2,0,0,1-.19.3,1,1,0,0,1-.24.16,1.24,1.24,0,0,1-.12-.23,2.5,2.5,0,0,1-.07-.31l-.51,1.27-.56-1.73a6.64,6.64,0,0,1-1.58.66,3.64,3.64,0,0,1,.26-.47,9.16,9.16,0,0,1,1.87-1.86,27.33,27.33,0,0,1,6.68-3.67c.62-.24,1.25-.46,1.89-.7l-.43-.95-1.16,1.37-.32-1.09c-.43.5-.83,1-1.22,1.43-.74-.4-1.34,0-2,.32l-.62-1-.71,1.7-.83-.7-1.86,2.5L41.44,16h-.26c-.34,1-.67,2-1,3.06l-.67-1.77h-.06c-.1.77-.19,1.54-.28,2.31h-.07l-1-2a7.21,7.21,0,0,1-1.87,1.69c0-.28.08-.53.11-.77a5.36,5.36,0,0,1,3.3-4.51c1.42-.64,2.82-1.34,4.23-2,.25-.12.42-.27.36-.6l-2.12.89.22-1.16-.06,0L40,13.58V12l-.29.19c-.39.32-.78.64-1.18,1a2.47,2.47,0,0,1-.37.19c0-.62.39-1,.53-1.59l-2.27,1.73.11-1.38a3.16,3.16,0,0,1-2.89.94l0-.13c0-.05,0-.1.08-.14a6.56,6.56,0,0,1,2.57-2.24,13.87,13.87,0,0,1,5-1.27,32.52,32.52,0,0,1,9,.53l2,.39a8.18,8.18,0,0,0-3.85-1.44c-.69-.05-.69-.05-.71-.74L46,8.74,46.45,7c-.71.28-1.16,1-1.93,1.06L44.45,8l.71-1.08L41.92,8.3l0-.05,1-1.41a4.42,4.42,0,0,1-2.73.31c1-.75.79-.76,6.37-2.32a5.08,5.08,0,0,1,1.77-.23,14.13,14.13,0,0,1,5.65,1.53A22.18,22.18,0,0,1,59,9.7l.44.38c0-.9.06-1.75.11-2.6a.77.77,0,0,0-.31-.67A16.06,16.06,0,0,1,57.84,5.7a1,1,0,0,1-.25-1.23,2.75,2.75,0,0,1,.51-.79A4.25,4.25,0,0,0,59,2.1c.18-.51.2-.89-.36-1.2-.4-.22-.3-.66.13-.81ZM33.13,84.74a2.71,2.71,0,0,0,0,.29c0,1,0,2.09,0,3.13a.42.42,0,0,0,.35.47c1.53.42,3,.9,4.58,1.27a77.85,77.85,0,0,0,11.26,1.79c3.07.29,6.14.45,9.22.45,1.81,0,3.62,0,5.42-.07s3.89-.19,5.82-.36a87.46,87.46,0,0,0,8.68-1.19,59.18,59.18,0,0,0,7.5-1.88.47.47,0,0,0,.38-.52c0-1,0-2,0-3,0-.09,0-.18,0-.29l-.29.07c-1,.3-2,.62-3,.89a64.61,64.61,0,0,1-11.8,1.88c-2.7.2-5.39.36-8.09.42s-5.52,0-8.27,0c-3.63-.12-7.25-.43-10.86-.85a57,57,0,0,1-7.46-1.4C35.37,85.46,34.27,85.09,33.13,84.74Zm5.54-13.57a6.57,6.57,0,1,0-6.29,6.55A6.59,6.59,0,0,0,38.67,71.17Zm55.13,0a6.55,6.55,0,1,0-6.48,6.56A6.52,6.52,0,0,0,93.8,71.16ZM86,87.28c.32,0,.6,0,.89,0a1.68,1.68,0,0,1,.87.22A29.62,29.62,0,0,0,90.53,89,26,26,0,0,0,105,90.67c.3,0,.61-.13.91-.19a.54.54,0,0,0-.25-.18l-2.75-1a3,3,0,0,1-.44-.25l3.05-1.72H102a42.48,42.48,0,0,1-7.21-.56,16.06,16.06,0,0,1-4.55-1.62A17.39,17.39,0,0,0,84,83.34a2.18,2.18,0,0,0-1.69.52.53.53,0,0,0-.22.61.46.46,0,0,0,.53.31c.77,0,1.54-.1,2.3-.17.35,0,.68-.14,1-.22ZM33,84.39c.65.1,1.25.24,1.85.28a3.87,3.87,0,0,0,1.22-.13c.47-.12.54-.58.15-.88a1.82,1.82,0,0,0-.54-.27,2.38,2.38,0,0,0-1.72.13c-.94.43-1.89.85-2.8,1.32a26.43,26.43,0,0,1-6.2,2.3,35.72,35.72,0,0,1-10.67.58,4.13,4.13,0,0,0-.5,0v.06L17,89.67,13.55,91l0,.09,2.78.51a3.28,3.28,0,0,0,.63.06,36,36,0,0,0,16-3.69.08.08,0,0,0,0-.07c0-.74,0-1.47,0-2.21ZM45.25,63.94c.36.2.71.41,1.07.59a1.23,1.23,0,0,0,.42.14c.32,0,.66,0,1,0,.53,0,.53,0,.47.55a.41.41,0,0,0,.26.49c.28.1.56.21.85.29a1.58,1.58,0,0,1,.8.46,3,3,0,0,0,.7.62c1,.62,2.1,1.22,3.15,1.82.11.06.29.13.36.08s.49-.26.46-.59a2.42,2.42,0,0,0-.09-.6.7.7,0,0,0-.28-.37c-2.85-1.59-5.7-3.16-8.56-4.74a.76.76,0,0,1-.24-1.17,1.14,1.14,0,0,0,.25-1,.7.7,0,0,1,0-.25,1.18,1.18,0,0,0-.37-1.15,2.52,2.52,0,0,0-1.23-.67c-.25-.06-.33-.18-.28-.42s0-.35,0-.53-.08-.3-.29-.3H42.4c-.24,0-.31.11-.29.32s0,.55.06.85a2.41,2.41,0,0,0-1.82,1.31L22.81,50l-.56.62.37.24,7.32,4.22a.69.69,0,0,0,.68.05.87.87,0,0,1,1.17.39,4.8,4.8,0,0,1,.32.54,1.31,1.31,0,0,0,.63.64L40,60.94a1.39,1.39,0,0,1,.74,1.37,3.6,3.6,0,0,0,.62,2.23,2.23,2.23,0,0,0,.27.26l.07-.06A3.82,3.82,0,0,1,40.93,62a4.24,4.24,0,0,0,4.3,0,3.6,3.6,0,0,1-1.11,3.09c.12,0,.18,0,.2,0C44.63,64.69,44.93,64.33,45.25,63.94Zm-16.79-23L53.61,61.24c.19-.16.34-.32.53-.45a.62.62,0,0,1,1,.45c0,.11,0,.24.05.35s.09.19.13.19h1.22l0-.08-.2-.17-1.66-1.29L32.36,42.86l-3-2.36c-.09-.07-.18-.21-.33-.07Zm61.83-.31L62.85,61.94l0,.06h1.29l.06-.41c0-.27.1-.52.39-.62a.76.76,0,0,1,.8.17c.12.11.22.23.34.36L91,41.12Zm-8-5.79a4.94,4.94,0,0,1-.58-.19.38.38,0,0,0-.49.12l-.79.88-15,16.68c-.88,1-1.77,1.95-2.66,2.93a1.77,1.77,0,0,0-.55,1.36,6.22,6.22,0,0,1-.08,1c0,.14,0,.28,0,.5ZM56.86,57.61l.06,0-.12-1.66a1.34,1.34,0,0,0-.34-.82c-1.15-1.26-2.28-2.54-3.42-3.8L40,36.81l-1.82-2c-.1-.1-.25-.22-.36-.21a4.69,4.69,0,0,0-.76.19ZM16.39,81.39c-.07-.19-.11-.31-.16-.43-.14-.41-.26-.82-.44-1.22a.42.42,0,0,0-.78-.07,1.31,1.31,0,0,0-.21.64,6.57,6.57,0,0,0,.08.92L5.47,84.46a.72.72,0,0,1,0-.78L6.78,81.9c.13-.18.27-.18.41,0l.44.49a7.45,7.45,0,0,1,1.62-2.53A11.73,11.73,0,0,0,5.3,81.26c.38.09.81-.1,1.14.21l-.18.23c-.78,1-1.58,2.06-2.35,3.1-.38.53-.34.61.23.91a11.77,11.77,0,0,0,2.79.88l1.7.36c-.21.56-.68.81-1.1,1.21a7.84,7.84,0,0,0,4.57-1.48l-3-1.2V86c0,.29-.1.34-.37.24-.76-.3-1.53-.59-2.29-.9A3.16,3.16,0,0,1,5.86,85l0-.15c3.09-.92,6.2-1.75,9.31-2.62a2.69,2.69,0,0,0,.23.59,3,3,0,0,0,.63.74c.32.23.61,0,.62-.35a3.38,3.38,0,0,0,0-.55c0-.31-.08-.62-.13-1L17,82a.72.72,0,0,0,1-.32.79.79,0,0,0-.34-1.07.72.72,0,0,0-1.06.3A4.27,4.27,0,0,0,16.39,81.39Zm24-12.22c0,.36.07.69.12,1a1,1,0,0,0,.14.43q1.76,2.7,3.55,5.37a1.11,1.11,0,0,0,.57.43c.86.28,1.73.51,2.59.76.23.07.3,0,.29-.22,0-.73,0-1.47,0-2.21a.36.36,0,0,0-.28-.39,8.63,8.63,0,0,0-.86-.28,1.19,1.19,0,0,1-.81-.64c-.66-1.21-1.35-2.41-2-3.61a3.5,3.5,0,0,0-.23-.35c-.55.35-1.15.19-1.73.25l0-.44Zm31.33,8.08c1-.28,1.91-.54,2.84-.83A1,1,0,0,0,75.1,76c1.07-1.58,2.1-3.19,3.17-4.76a4.56,4.56,0,0,0,.7-2.1l-1.3.13,0,.48c-.53-.06-1.05-.08-1.54-.17-.22,0-.3,0-.41.17l-2.14,3.8A.88.88,0,0,1,73,74c-.32.1-.64.22-1,.31a.38.38,0,0,0-.31.42c0,.72,0,1.44,0,2.16A2.26,2.26,0,0,0,71.74,77.25Zm-9-22.86.05,0,.16-.14c.64-.7,1.28-1.41,1.91-2.12a2.56,2.56,0,0,0,.39-.68c1.24-3.42,2.46-6.84,3.69-10.26.14-.38.26-.78.41-1.21h-.8l.71-1.89-.44,0c-.49-.06-.49-.06-.65.4q-2.49,7.32-5,14.63C63,53.52,62.9,54,62.76,54.39Zm-6.15-.07-.12-.39q-1.92-5.61-3.85-11.23c-.49-1.45-1-2.89-1.5-4.33,0-.14-.17-.32-.27-.33a4,4,0,0,0-.76.05L50.82,40H50a2.64,2.64,0,0,0,.61,1.25l1.6,4c.11,1.86,1,3.51,1.51,5.26S55.51,53.13,56.61,54.32Zm40-4.27L78,60.29l.82,1,.33-.2,7-4a3.39,3.39,0,0,0,1.44-1.44.86.86,0,0,1,1.2-.42.68.68,0,0,0,.65,0l7.39-4.27a2.23,2.23,0,0,0,.3-.2ZM65.87,39.17l-.64-.06c-.41,0-.47,0-.57.41-.45,2-.88,4-1.36,6a19.41,19.41,0,0,0-.75,5.78,32.11,32.11,0,0,1-.13,3.25,1.23,1.23,0,0,0,0,.19h.09c1.22-4.69,2.21-9.43,3.36-14.14l-.29-.15Zm2.84,41.36.14.16a3.27,3.27,0,0,0,3.83.17.37.37,0,0,0-.05-.67c-.25-.14-.53-.24-.8-.36a.65.65,0,0,1-.43-.65c0-.36,0-.72,0-1.08V72.51a.5.5,0,0,0-.28-.52.41.41,0,0,1-.27-.46c0-.49,0-1,0-1.47q0-.25-.24-.24h-.22c-.27,0-.37.09-.36.35a10.28,10.28,0,0,1,0,1.11.25.25,0,0,1-.15.19c-1,.16-1.43.56-1.48,1.54-.07,1.15,0,2.31,0,3.46a1.55,1.55,0,0,0,.49,1.13,1,1,0,0,0,.56.24,10.55,10.55,0,0,0,1.13,0c0,.38,0,.76,0,1.15a.76.76,0,0,1-.53.85C69.61,80,69.18,80.29,68.71,80.53Zm-18,.06c-.3-.17-.5-.3-.71-.41s-.65-.3-1-.48a.54.54,0,0,1-.25-.36c0-.43,0-.87,0-1.3,0-.15.08-.23.25-.22a4.53,4.53,0,0,0,.74,0,.88.88,0,0,0,.5-.09,1.6,1.6,0,0,0,.66-1.2c0-.9,0-1.81,0-2.71,0-.33,0-.66,0-1a1.43,1.43,0,0,0-1.32-1.37c-.3,0-.38-.16-.36-.44a7.83,7.83,0,0,0,0-1c0-.25-.09-.3-.47-.29-.21,0-.36,0-.36.31,0,.49,0,1,0,1.49a.66.66,0,0,1-.19.39.92.92,0,0,0-.33.67c0,.34,0,.68,0,1,0,1.23,0,2.45,0,3.68,0,.65,0,1.29,0,1.94a.56.56,0,0,1-.37.53,3.85,3.85,0,0,0-.66.28.89.89,0,0,0-.41.43c-.07.24.16.37.36.46a3.51,3.51,0,0,0,3.26,0A3.68,3.68,0,0,0,50.72,80.59Zm3.85-12c-.45.09-.48.42-.49.75a.55.55,0,0,0,.43.6c.65.21,1.31.39,2,.57a4.29,4.29,0,0,0,.53.06V70h1.91l0,.63,1.65-.13a.37.37,0,0,0,.41-.39.25.25,0,0,1,.11-.19l1.29-.37,0,.52c.35-.21.7-.37.71-.85a.6.6,0,0,0-.35-.58l-.07.46a6.38,6.38,0,0,0-.66-.22.49.49,0,0,1-.42-.55c0-.08-.08-.21-.14-.22-.61-.09-1.22-.17-1.83-.22a.37.37,0,0,0-.32.19c-.08.29-.26.33-.51.3h-.3c-.22,0-.33,0-.33-.27s-.14-.3-.33-.28l-1.92.24c-.2,0-.28.12-.3.32a.39.39,0,0,1-.16.29,7.71,7.71,0,0,1-.77.29ZM25.62,66.2a8.08,8.08,0,0,0,1.32,11.32l.85-.94c-2.9-2.9-3.35-6.09-1.15-9.6ZM78,64v.09a.93.93,0,0,1-.23,0c-.25,0-.5,0-.74,0a.56.56,0,0,0-.52.25c-.27.37-.49.34-.69-.06s-.7-.32-.83-.07a11.41,11.41,0,0,0-.55,1.24c-.09.23,0,.35.25.31A8.34,8.34,0,0,0,76,65.44a1.3,1.3,0,0,0,.79-.68.4.4,0,0,1,.27-.15c.44-.11.89-.19,1.32-.33a.75.75,0,0,0,.52-.77,3.42,3.42,0,0,0-1-2.42A2.09,2.09,0,0,1,77.27,60a.94.94,0,0,0-.86-.79,10.73,10.73,0,0,0-1.5,0,1.87,1.87,0,0,0-1.38.86.92.92,0,0,0,0,1.11.82.82,0,0,0,1,.3l.41-.12a4.4,4.4,0,0,0,0,.45c0,.55,0,1.11,0,1.67,0,.2.13.29.34.28H76l.24.6a.71.71,0,0,1,.85-.52C77.36,63.94,77.7,63.81,78,64ZM56.58,53.72h.05a.77.77,0,0,0,0-.15c0-1.67-.08-3.33-.13-5a9.14,9.14,0,0,0-.1-1.57c-.28-1.36-.6-2.71-.91-4.07-.27-1.16-.53-2.33-.81-3.49,0-.12-.15-.31-.24-.31a7.81,7.81,0,0,0-1,0c.09.4.17.75.24,1.11,0,.06,0,.2,0,.21-.22.07-.17.22-.13.37L56.42,53.1C56.47,53.31,56.53,53.52,56.58,53.72Zm25.6,11c.27.28.52.55.78.81a.29.29,0,0,0,.27,0c.3-.14.58-.32.88-.46a6.88,6.88,0,0,1,4.43-.69A7.6,7.6,0,0,1,92,66.29l.51.45,1-.79A8.11,8.11,0,0,0,82.18,64.76ZM37.5,75.43l1,.83A8.07,8.07,0,0,0,37.38,65l-.89,1a7,7,0,0,1,1,9.49Zm43.36.83,1-.85a6.88,6.88,0,0,1,1-9.49L82,65A8.12,8.12,0,0,0,80.86,76.26ZM37.19,64.76c-3.5-3-9.08-2-11.33,1.21l1,.77c2.91-2.83,6-3.16,9.46-1Zm54.13,12a6.92,6.92,0,0,1-9.27-1.09l-1,.84A8,8,0,0,0,92.2,77.69Zm-54-1.1A6.82,6.82,0,0,1,32.89,78a6.92,6.92,0,0,1-4.84-1.24l-.9,1a8.08,8.08,0,0,0,11.18-1.25ZM75,62l-.13.05c-3.27,1.8-6.55,3.59-9.82,5.4a.49.49,0,0,0-.25.24,3.62,3.62,0,0,0-.16.92.48.48,0,0,0,.75.4c1.14-.65,2.29-1.3,3.42-2a1.42,1.42,0,0,0,.42-.39,1.67,1.67,0,0,1,1.07-.61c.81-.12,1-.34.87-1,0-.19.06-.29.26-.3s.53,0,.8,0a2.5,2.5,0,0,0,.83-.15c.59-.29,1.16-.65,1.72-1a.46.46,0,0,0,.21-.29C75,62.87,75,62.45,75,62ZM38.58,78.9a5.75,5.75,0,0,0,.16.61,3.48,3.48,0,0,0,2.92,2.19,1.83,1.83,0,0,0,1.62-.47,2.49,2.49,0,0,0,.14-3.2,3.56,3.56,0,0,0-2.06-1.15c-.16,0-.31-.06-.35.13s-.32.38,0,.59a1.38,1.38,0,0,1,.58,1.09c0,.35-.16.55-.51.53s-.67-.09-1-.14Zm39.94-1.57a2.26,2.26,0,0,1-.12-.28c-.07-.21-.19-.24-.38-.16s-.67.21-1,.36A2.5,2.5,0,0,0,75.51,80a1.82,1.82,0,0,0,1.85,1.67,3.58,3.58,0,0,0,2.3-.82,3.45,3.45,0,0,0,1.15-1.95c-.28,0-.53,0-.77,0l-1.53.23c-.59.08-.91-.3-.66-.84A9.43,9.43,0,0,1,78.52,77.33Zm-19-27.08h2.41c.32,0,.36,0,.35-.37,0-.57,0-1.13-.05-1.69,0-.4,0-.43-.46-.43H57.15c-.37,0-.39,0-.39.39v1.69c0,.37,0,.41.41.41ZM20.25,62.78c-.19,1.23-.36,2.43-.55,3.62,0,.24.05.31.27.33l1.87.2,1.35.11c.08-1.33.16-2.62.24-3.93Zm75.7.35c.08,1.32.15,2.61.23,3.92.12,0,.22,0,.32,0l3-.32c.19,0,.21-.14.19-.29-.06-.45-.12-.9-.19-1.34-.11-.77-.23-1.53-.36-2.32ZM59.47,48H61.7c.18-.47.33-.48.32-.73,0-.61-.07-1.23-.1-1.84,0-.19-.1-.25-.28-.43H57.33c-.2.18-.31.27-.32.49,0,.59,0,1.17-.07,1.76,0,.22.1.28.3.28A3.83,3.83,0,0,1,59.47,48ZM62,44.68c-.06-.78-.12-1.52-.19-2.27,0-.06-.14-.16-.23-.16-.43,0-.86,0-1.29,0H57.4c-.41,0-.42,0-.44.41s0,1-.08,1.58,0,.5.45.5h4.23C61.7,44.72,61.83,44.69,62,44.68ZM57,56c.06.78.12,1.53.18,2.28a.2.2,0,0,0,.21.2h4.12a.37.37,0,0,0,.37-.35c0-.42,0-.84.08-1.26s0-.57,0-.87Zm2-1V53H57.22c-.33-.17-.38-.13-.36.19,0,.51.08,1,.11,1.54,0,.25.14.34.37.34h4.43c.2,0,.3-.08.31-.29,0-.52,0-1,.07-1.55,0-.33,0-.41-.37,1.77ZM71.65,67l-.12,0a3.85,3.85,0,0,1-.27-.3,1.05,1.05,0,0,0-1.12-.42,1.14,1.14,0,0,0-.89.79,1.21,1.21,0,0,0,.65,1.45,1.18,1.18,0,0,0,1.51-.5c.08-.13.18-.25.27-.38l.1,0c0,.15.1.3.13.46.1.68.2,1.37.29,2,0,.25.13.35.37.31l.5-.07c.41,0,.45-.11.38-.51s-.17-1-.26-1.55c-.18-1.06-.36-2.11-.55-3.16,0-.1-.14-.26-.21-.26-.32,0-.63,0-1,.05,0,.36.09.68.12,1S71.62,66.68,71.65,67Zm-28,16.8c.5,1,1.18.74,1.9,0l.31.23a1,1,0,0,0,1.15.16c.23-.11.46-.19.69-.3a.26.26,0,0,1,.35.07.93.93,0,0,0,1.4.06.6.6,0,0,0,.08-.08.48.48,0,0,1,.79.07,1.09,1.09,0,0,0,1.64.13l.21-.2c.34.29.37.3.8.08.15-.07.25-.08.37.06a.64.64,0,0,0,.91.17l.53-.26a.67.67,0,0,0,.68.53c.36,0,.5-.27.68-.52.24.58.44.67.77.33a1.64,1.64,0,0,1-.26-.2c-.1-.1-.27-.24-.25-.33a.71.71,0,0,1,.3-.37,2,2,0,0,1,.47-.2c-.17-.21-.34-.31-.54-.15a.5.5,0,0,1-.66,0c-.35-.27-.69-.42-1,0-1-.72-1.34-.71-2,0-.56-.32-.6-.32-.66,0,.43,0,.61,0,.72.28a.37.37,0,0,1-.14.48.5.5,0,0,1-.64,0c-.29-.22-.17-.48,0-.68a1.3,1.3,0,0,0-2.17,0c-.12-.11-.21-.2-.31-.28a1.38,1.38,0,0,0-1.54-.21.51.51,0,0,1-.71,0,1.11,1.11,0,0,0-1.77.2l-.11.13a.31.31,0,0,1-.46.07l-.23-.16a.65.65,0,0,0-.88,0l-.33.24c-.55-.56-1.13-.75-1.48-.41l.58.24c.19.07.38.17.34.38a.74.74,0,0,1-.32.36,4.16,4.16,0,0,1-.54.23C42.81,84.31,43.21,83.94,43.65,83.81Zm30.17,0c.9.86,1.42.87,1.91,0l.64.23c.22.08.45.18.65-.11a2.36,2.36,0,0,1-.51-.21.53.53,0,0,1-.25-.35c0-.11.14-.25.25-.34s.25-.07.36-.13a2.86,2.86,0,0,0,.37-.26,1.45,1.45,0,0,0-1.57.51l-.2-.14a.76.76,0,0,0-1.09-.07c-.4.24-.4.24-.7-.12A1.16,1.16,0,0,0,72,82.56l-.43.33a1.24,1.24,0,0,0-1.11-.35,1.53,1.53,0,0,0-1,.59c-1.12-.8-1.13-.8-2.19,0,.14.21.24.43,0,.63a.52.52,0,0,1-.64.08.41.41,0,0,1-.17-.53c.14-.35.44-.29.74-.24-.13-.28-.13-.28-.71,0a.86.86,0,0,0-.93-.51,6.71,6.71,0,0,0-1.1.43c-.38-.25-.46-.25-.93.09a.52.52,0,0,1-.56.09,1.52,1.52,0,0,0-.43-.12.17.17,0,0,0-.15.08s0,.11.07.15a1.76,1.76,0,0,0,.2.09c.43.17.48.46.14.75l-.3.27c.18,0,.35.12.43.07a2,2,0,0,0,.43-.4c.44.65,1,.64,1.34-.06,1.05.45,1.05.45,1.59-.08.66.26.66.26,1,0,.13.1.25.21.39.3A1.08,1.08,0,0,0,69,84.08c.4-.43.5-.43,1,0a1,1,0,0,0,1.35,0,2.47,2.47,0,0,0,.21-.27C72.66,84.43,73,84.43,73.82,83.77ZM47.64,67.68h.09a1.79,1.79,0,0,1,.2.28,1.16,1.16,0,0,0,1.21.68,1.21,1.21,0,0,0,1-1,1.17,1.17,0,0,0-.75-1.28,1,1,0,0,0-1.33.42,3.65,3.65,0,0,0-.18.34L47.74,67a15,15,0,0,1,.18-2L47.24,65c-.43-.06-.43-.06-.5.37-.18,1.07-.37,2.13-.55,3.19l-.3,1.8.24.05.55.08c.42,0,.49,0,.55-.44.09-.65.18-1.3.28-1.94A3.38,3.38,0,0,1,47.64,67.68Zm9.12-17.14c0,.61.08,1.16.12,1.72,0,.2.1.32.3.32H62c.18,0,.25-.08.25-.25,0-.46,0-.92,0-1.38s-.06-.45-.45-.45H57.27C57.11,50.5,57,50.53,56.76,50.54Zm25,14.08-1.54.16-2.67.29c-.39,0-.46.16-.41.55l.3,2.35c0,.35.11.69.16,1l1-.09c.43,0,.47-.06.61-.46a8,8,0,0,1,1.76-3Zm-39.45.5-4.75-.53a8.92,8.92,0,0,1,2.7,4c0,.11.22.2.35.26a1.35,1.35,0,0,0,.41.06c.23,0,.55.12.69,0s.13-.44.17-.69C42,67.22,42.17,66.18,42.32,65.12ZM57.39,58c.07,1.26.12,2,.2,2.66,0,.07.16.16.24.16a2.06,2.06,0,0,1,.93.18h2.41c.16-.17.33-.16.35-.39,0-.69.1-1.38.15-2.61Zm4.42-16c-.06-.72-.11-1.32-.18-1.92,0-.35-.07-.38-.43-.08H57.77c-.76-.3-.65-.34-.7.33a.41.41,0,0,1,0,.11c0,.48,0,1-.06,1.56Zm-4.73-5h4.56l-.41-2.42H57.82a.22.22,0,0,0-.21.17C57.42,35.49,57.26,36.23,57.08,37ZM43.38,69.19l2,.19c.26,0,.35-.08.39-.31.08-.45.18-.9.25-1.35.13-.72.24-1.43.36-2.17l-2.58-.28C43.67,66.59,43.53,67.86,43.38,69.19ZM59,39.43v0h1.91a.29.29,0,0,0,.29-.33c-.07-.54-.12-1.09-.18-1.64a.3.3,0,0,0-.34-.31H57.25c-.15,0-.3,0-.32.21,0,.58-.08,1.17-.1,1.75a.33.33,0,0,0,.34.36Zm-.09,35h-.08l0,.09-1.53,4.67c-.06.19,0,.29.21.3.52,0,1,.11,1.54.13s1.11,0,1.7,0C60.1,77.84,59.5,76.12,58.91,74.4ZM47.6,42.89c0,.13.08.25.14.37.42,1,.82,1.91,1.28,2.84a6,6,0,0,0,.81,1.24c.7.82,1.44,1.61,2.16,2.41l.3.31a.49.49,0,0,0-.06-.33l-2.46-5c-.57-1.15-1.13-2.3-1.71-3.44-.06-.13-.19-.29-.31-.3a2.57,2.57,0,0,0-.68.12l.89,1.7Zm24.69-1.77L72,41.05c-.52-.12-.53-.12-.76.36l-3.48,7c-.25.52-.52,1.05-.78,1.57l.06.05c.06-.07.11-.15.17-.21.84-.93,1.69-1.85,2.52-2.79a2.65,2.65,0,0,0,.45-.69c.48-1,.93-2.06,1.4-3.09.06-.13.11-.27.18-.42l-.35-.08ZM76,69.21c-.1-.95-.19-1.87-.3-2.78,0-.44,0-.44-.48-.39s-.63-.07-.7-.52a1.21,1.21,0,0,0,0-.14l-1.28.15c-.18,0-.23.08-.2.26.2,1.12.39,2.23.59,3.35a.28.28,0,0,0,.34.27ZM60.53,61h-3c.06.67.11,1.33.17,2,0,.21.17.23.35.23h3.34l0,0Zm-9.23-.55-.6.79a1.26,1.26,0,0,0,0,1.56,6.15,6.15,0,0,1,1,2.22l.51-.49c.42-.4.83-.83,1.28-1.21.23-.19.38-.35.28-.68a1.77,1.77,0,0,1-.06-.52c0-.14-.06-.2-.21-.22a2.49,2.49,0,0,1-1.3-.58C51.9,61.06,51.62,60.76,51.3,60.45ZM57.41,34h4c-.19-.76-.36-1.5-.55-2.23a.3.3,0,0,0-.27-.21H58.34a.41.41,0,0,0-.41.32C57.75,32.58,57.59,33.27,57.41,34ZM68,60.49l-.19.21a2.67,2.67,0,0,1-1.39,1c-.78.12-.87.59-.87,1.2v0a.9.9,0,0,0,.11.22c.36.31.73.59,1.07.91s.6.6.94.94a5.87,5.87,0,0,1,.94-2.11,1.55,1.55,0,0,0,.2-1.4A2.67,2.67,0,0,0,68,60.49ZM29.91,26.07a1,1,0,0,0,.05.19c.52,1.23,1,2.46,1.57,3.68a.67.67,0,0,0,.4.29c.42.12.84.19,1.27.28a1.39,1.39,0,0,0,.74-.49s0-.07,0-.11a6.35,6.35,0,0,1-.05-.87.5.5,0,0,0-.25-.55c-.57-.36-1.12-.74-1.69-1.11ZM12.67,44.71l0,.06.14.19c.87,1,1.73,1.92,2.6,2.86a.76.76,0,0,0,.49.18c.29,0,.58-.09.87-.09a.79.79,0,0,0,.84-.56.65.65,0,0,0,0-.34c-.09-.26-.22-.51-.29-.77a.52.52,0,0,0-.42-.44l-2.3-.59Zm7.12-11.27a.56.56,0,0,0,0,.1c.76,1.15,1.51,2.31,2.28,3.45a.52.52,0,0,0,.37.19c.33,0,.66,0,1,0a.83.83,0,0,0,.88-.46.4.4,0,0,0,0-.24c-.06-.3-.16-.59-.2-.88a.51.51,0,0,0-.33-.46L20,33.52ZM67.72,75.63l-.21.06c-.59.18-1.17.37-1.76.54a1.06,1.06,0,0,0-.75,1v1.85l3.48-1A6.41,6.41,0,0,1,67.87,77,6.28,6.28,0,0,1,67.72,75.63ZM60.1,14.79c0-.17,0-.27,0-.37l.09-3.12c.05-1.59.11-3.19.15-4.78a.5.5,0,0,0-.51-.58c-.28,0-.39.13-.4.53l-.12,3c-.05,1.41-.11,2.82-.15,4.23a.48.48,0,0,0,.09.32C59.52,14.3,59.79,14.51,60.1,14.79ZM56.73,76.63c.54-1.4,1.06-2.76,1.57-4.07L55,71.82ZM61.35,64H57.73c.07.66.12,1.31.21,2,0,.07.18.18.28.18.89,0,1.78,0,2.68,0a.27.27,0,0,0,.26-.24C61.23,65.28,61.29,64.65,61.35,64ZM51.24,75.58a3.39,3.39,0,0,1-.76,2.5l3.28,1c0-.84,0-1.63,0-2.42a.32.32,0,0,0-.17-.25C52.83,76.1,52.07,75.85,51.24,75.58Zm11.85-.91c-.43,1.62-.84,3.16-1.26,4.72l.2,0a5.79,5.79,0,0,0,2.66-.91c.2-.14.17-.32.07-.51l-1.32-2.67C63.34,75.13,63.23,74.94,63.09,74.67ZM47.24,31.8l-.07,0,0,.24,1,4.67c.21,1,.42,2,.64,3,.07.35.15.4.49.39H50l.4,0ZM32.38,32c.33.26.63.5.94.73s.47.24.8,0L36.21,31a.63.63,0,0,1,.2-.1c-.31-.45-.57-.82-.82-1.2a.3.3,0,0,0-.47-.09A10.51,10.51,0,0,0,32.38,32ZM61,32c-.13-.7-.25-1.39-.39-2.08a.26.26,0,0,0-.24-.19c-.6,0-1.21,0-1.82,0a.43.43,0,0,0-.43.34c-.08.33-.15.67-.22,1s-.13.62-.19.94ZM43.32,34.68l-.06,0c0,.06,0,.12.05.18.42,1.17.83,2.35,1.25,3.53S45.48,41,46,42.28c0,.12.17.28.26.29.43,0,.86,0,1.34,0C46.13,39.92,44.73,37.3,43.32,34.68ZM13.24,71.73a5.79,5.79,0,0,1,.84,0,1,1,0,0,1,.56.22c1.29,1.19,2.55,2.4,3.82,3.61a1.12,1.12,0,0,0,1.41.18l-.18-.17q-2.18-2-4.36-3.92a1.44,1.44,0,0,1-.48-.81c0-.21-.11-.42-.17-.64A3.32,3.32,0,0,0,13.24,71.73Zm78-8.12a1.43,1.43,0,0,0,.15.11,8.64,8.64,0,0,1,3.27,3.22c.06.11.19.17.29.25l.09,0a1.61,1.61,0,0,0,0-.44c-.07-.68-.16-1.37-.25-2-.06-.46-.13-.92-.2-1.4Zm-66.49-.34c0,.32-.07.6-.11.87-.12.93-.24,1.86-.35,2.8a.61.61,0,0,0,.08.25,1.45,1.45,0,0,0,.29-.11.3.3,0,0,0,.07-.11,8.5,8.5,0,0,1,3.14-3.16l.29-.2Zm63.16-4.18c.45-.81.9-1.6,1.34-2.4a1.48,1.48,0,0,0,.12-.47c0-.38-.23-.68-.68-.83a.63.63,0,0,0-.85.29c-.5.83-1,1.68-1.47,2.54ZM33,58.22c-.5-.87-1-1.73-1.49-2.57a.69.69,0,0,0-.43-.29.88.88,0,0,0-1,1.22c.41.86.91,1.67,1.38,2.51Zm-16.16-8.7c.34.11.65.2.94.31a.41.41,0,0,0,.56-.19c.5-.75,1-1.49,1.53-2.24l.23-.35-1.23-1A9.41,9.41,0,0,0,16.86,49.52Zm39.2,29.67-2-6.3c0,.08-.05.09-.05.11,0,1.59,0,3.19,0,4.78a.77.77,0,0,0,.2.5A3.23,3.23,0,0,0,56.06,79.19ZM25.68,35.81a10.17,10.17,0,0,0-2.47,3c.34.17.66.34,1,.49a.33.33,0,0,0,.25-.06A8.56,8.56,0,0,1,26.94,37Zm34,36.75c.51,1.34,1,2.62,1.5,3.91h.08l1.06-4.11Zm40.65-10.89c-.25.11-.47.21-.7.29a.31.31,0,0,0-.25.41l.63,4.09c.12.79.12.79.91.7l.08,0C100.74,65.32,100.52,63.51,100.29,61.67ZM18.39,67h.49c.37,0,.4,0,.45-.4.08-.54.17-1.09.25-1.63.14-.92.27-1.84.42-2.76a.34.34,0,0,0-.25-.44l-.69-.27C18.84,63.34,18.62,65.15,18.39,67Zm25.18-2.16c-.23,0-.43,0-.63,0s-.33.09-.36.31c-.14,1.07-.29,2.14-.44,3.2,0,.36-.09.73-.13,1.12h.78c.2,0,.28-.07.3-.27,0-.38.09-.76.13-1.15C43.34,67,43.45,65.92,43.57,64.84Zm8-32.63h-.07l.9,8.1,1-.07C52.85,37.54,52.24,34.87,51.62,32.21Zm9.31,35.33L61.09,66H58c0,.39.07.75.1,1.11s0,.46.48.34A3.27,3.27,0,0,1,60.93,67.54Zm3.35,1c0-.18.08-.31.1-.44l.15-1c.16-1.08.31-2.15.49-3.22,0-.27-.11-.32-.31-.34s-.39-.09-.45.24c-.22,1.29-.48,2.58-.71,3.87a.34.34,0,0,0,0,.27C63.8,68.2,64,68.37,64.28,68.58Zm13.09.87-.55-3.91c-.29.11-.55.2-.79.32a.27.27,0,0,0-.11.23c.12,1,.24,2.1.38,3.14a.28.28,0,0,0,.21.21A8.05,8.05,0,0,0,77.37,69.45Zm-22.3-1c.25-.17.47-.31.67-.47a.26.26,0,0,0,.08-.2c-.23-1.32-.47-2.64-.71-4,0-.07-.06-.18-.09-.18a1.73,1.73,0,0,0-.56.09c-.06,0-.08.22-.07.34.1.69.21,1.38.32,2.07S54.94,67.64,55.07,68.45ZM65,71.26l-1.65.82L65,75.45l0,0Zm38.17,10.45a.7.7,0,0,0,.68-.36c.37-.7.74-1.41,1.12-2.11.11-.19.13-.37-.07-.51a.44.44,0,0,0-.6.14c-.48.73-1,1.47-1.41,2.21a.51.51,0,0,0,0,.43C102.91,81.63,103.1,81.67,103.17,81.71Zm-81.8-7v-.07l-4.4-2,0,.08a.64.64,0,0,0,.1.13A9.91,9.91,0,0,0,19.92,75a.46.46,0,0,0,.26.07C20.58,75,21,74.84,21.37,74.74Zm2.39-12s0,.07,0,.1l-.27,4.49c0,.15,0,.26.2.26a.24.24,0,0,0,.28-.25c.15-1.2.32-2.39.47-3.59A.87.87,0,0,0,23.76,62.74Zm71.87,0-.26.15a.66.66,0,0,0-.39.82c.14.77.2,1.55.3,2.33.07.51.14,1,.2,1.51.44.07.47,0,.45-.36-.06-.9-.11-1.8-.17-2.7C95.72,63.9,95.67,63.33,95.63,62.72Zm6.68,10.08,0,0-4.44,2,.8.27a.8.8,0,0,0,.74,0c.68-.43,1.37-.85,2-1.32A8.13,8.13,0,0,0,102.31,72.8ZM54.1,63.47l1-.15c-.09-.71-.17-1.4-.25-2.08a.35.35,0,0,0-.4-.33.65.65,0,0,0-.58.63C54,62.17,54,62.8,54.1,63.47Zm11.18,0c0-.25,0-.46.08-.67,0-.43.11-.86.14-1.29a.65.65,0,0,0-.62-.59c-.24,0-.34.12-.39.5a.88.88,0,0,1,0,.16c-.07.58-.14,1.15-.21,1.75Zm.81-45.35-1,1c0-.36.05-.66.05-1a.62.62,0,0,0-.8-.65l.53,1.08-.68.24,1.06.86a.75.75,0,0,0,.27.13c.5.15.79-.07.74-.58C66.23,18.9,66.16,18.57,66.09,18.14Zm-13,.08H53c0,.47-.1.94-.11,1.4,0,.07.17.2.28.22a.94.94,0,0,0,.8-.21c.17-.15.36-.29.53-.43l.47-.39-.72-.24.52-1.12c-.73.14-.79.2-.79.89v.87ZM58,29H60.7c0-.21-.06-.4-.08-.59s-.12-.3-.32-.3H58.47a.39.39,0,0,0-.28.2A4.35,4.35,0,0,0,58,29ZM15.56,73.27c.22.94.43,1.87.66,2.84l1-.32A4.49,4.49,0,0,0,15.56,73.27Zm7,8.68a.79.79,0,0,0,.77-.77.75.75,0,0,0-.79-.75.72.72,0,0,0-.75.75A.76.76,0,0,0,22.55,82Zm73.2-1.79a.78.78,0,0,0,.78-.76.77.77,0,1,0-1.54,0A.74.74,0,0,0,95.75,80.16Zm-56.87,2a.73.73,0,0,0-.78-.74.74.74,0,0,0-.77.76.79.79,0,0,0,.79.76A.76.76,0,0,0,38.88,82.12Zm55-1.94a.74.74,0,0,0,.77-.73.81.81,0,0,0-.78-.8.77.77,0,0,0,0,1.53Zm-7.13,2.1a.77.77,0,1,0,0-1.53.79.79,0,0,0-.77.75A.8.8,0,0,0,86.75,82.28ZM82,82.11a.79.79,0,0,0-.78-.77.73.73,0,0,0-.74.76.74.74,0,0,0,.75.78A.8.8,0,0,0,82,82.11Zm-56.38,1.5a.73.73,0,0,0,.76-.76.78.78,0,0,0-.76-.76.8.8,0,0,0-.78.77A.74.74,0,0,0,25.66,83.61Zm58.72-3.2a.74.74,0,0,0-.73-.77.77.77,0,1,0,.73.77Zm-60.76-1.8a.82.82,0,0,0-.79.77.77.77,0,0,0,.79.76.72.72,0,0,0,.75-.74A.77.77,0,0,0,23.62,78.61ZM96.82,82a.8.8,0,0,0,.78-.8.76.76,0,0,0-.79-.72.72.72,0,0,0-.75.75A.77.77,0,0,0,96.82,82Zm-2,.07a.76.76,0,0,0,.79-.75.77.77,0,1,0-1.54,0A.73.73,0,0,0,94.8,82Zm-3.13-.14a.73.73,0,0,0-.77.78.72.72,0,0,0,.72.74.76.76,0,0,0,.78-.79A.7.7,0,0,0,91.67,81.88ZM35.78,79.64a.73.73,0,0,0-.77.73.79.79,0,0,0,.79.79.82.82,0,0,0,.75-.78A.76.76,0,0,0,35.78,79.64ZM97.85,82a.76.76,0,0,0-.78.76.75.75,0,0,0,.74.77.76.76,0,0,0,.79-.74A.77.77,0,0,0,97.85,82Zm-64.49-.49a.73.73,0,0,0-.74-.78.77.77,0,1,0,.74.78Zm-9.77.54a.76.76,0,1,0,.06,1.52.7.7,0,0,0,.71-.75A.78.78,0,0,0,23.59,82.09Zm1.91-1.9a.76.76,0,0,0,.76-.75.79.79,0,0,0-.79-.79.76.76,0,0,0-.74.76A.79.79,0,0,0,25.5,80.19Zm.93,1.58a.8.8,0,0,0,.81-.75.77.77,0,0,0-.77-.75.75.75,0,0,0,0,1.5Zm2,.85a.71.71,0,0,0-.75-.74.76.76,0,0,0-.77.77.78.78,0,0,0,.76.75A.75.75,0,0,0,28.47,82.62Zm65.23,1a.69.69,0,0,0,.76-.72.78.78,0,0,0-.75-.79.75.75,0,0,0-.76.77A.72.72,0,0,0,93.7,83.61ZM21.53,82.06a.76.76,0,0,0-.75.76.75.75,0,0,0,.76.75.76.76,0,1,0,0-1.51Zm74.22,1.55a.75.75,0,0,0,.8-.73.82.82,0,0,0-.78-.78.76.76,0,0,0-.75.76A.7.7,0,0,0,95.75,83.61ZM24.57,82a.72.72,0,0,0,.74-.75.76.76,0,1,0-1.52,0A.76.76,0,0,0,24.57,82Zm69.1-1a.73.73,0,0,0-.76-.74.75.75,0,0,0-.77.74.77.77,0,0,0,.79.76A.74.74,0,0,0,93.67,81Zm10-1.84c-.55-.13-1.06-.27-1.59-.36a.47.47,0,0,0-.42.16.38.38,0,0,0,.13.51c.32.24.63.48,1,.69a.3.3,0,0,0,.29,0C103.31,79.83,103.5,79.51,103.72,79.17Zm-40.3-16L61.85,63l.62-.9c-.42.21-.78.43-.79,1s-.08,1-.13,1.52l.07,0Zm-6.24,18c0-.44,0-.85,0-1.25a.24.24,0,0,0-.15-.2c-.32-.09-.64-.14-1-.22,0,.43,0,.81,0,1.2a.31.31,0,0,0,.2.22C56.53,81,56.85,81.06,57.18,81.14Zm4.6-1.38-.93.09c-.18,0-.27.1-.26.28s0,.55,0,.83.07.27.25.26.48,0,.71-.07a.32.32,0,0,0,.19-.22C61.8,80.55,61.78,80.18,61.78,79.76ZM40.51,72.57c-.06.3-.13.52-.16.75,0,.06.08.19.12.19.33,0,.45.24.58.48.24.46.49.93.75,1.38a.53.53,0,0,0,.7.27C41.84,74.63,41.19,73.63,40.51,72.57Zm19.11-1.65c-.38,0-.71,0-1,0a.34.34,0,0,0-.19.24,5.57,5.57,0,0,0,.1.82.3.3,0,0,0,.23.18,5,5,0,0,0,.67,0s0,0,0-.08C59.47,71.7,59.54,71.33,59.62,70.92Zm19.24,1.67-2,3.17c.43,0,.63-.13.78-.41s.43-.79.63-1.19.36-.7.83-.7ZM55.32,62.94l1.76-.17c-.12-.17-.19-.3-.29-.42s-.22-.28-.34-.29c-.41,0-.82,0-1.26,0ZM64.15,62h-.87a.87.87,0,0,0-.93.74l1.7.15ZM40.85,76.71c-.18-.16-.36-.34-.55-.49s-.41-.14-.5.15-.18.69-.27,1C40.39,77.56,40.63,77.44,40.85,76.71Zm39,.74c-.1-.4-.18-.76-.28-1.11s-.22-.28-.42-.15l-.28.22c-.38.34-.4.44-.12.86a.48.48,0,0,0,.29.17C79.28,77.46,79.54,77.45,79.84,77.45Zm-25.79-8c0,.34,0,.65,0,1a.62.62,0,0,0,.48.74.58.58,0,0,1,.17.06c.05-.29.11-.57.16-.85a.22.22,0,0,0,0-.08.56.56,0,0,0-.35-.65Zm1.89-6.36,1.6,1.29L57.39,63h-.27Zm8.4,17.2A1.26,1.26,0,0,0,65,78.61c-.18.12-.37.22-.53.35a.46.46,0,0,0-.15.3C64.33,79.61,64.34,80,64.34,80.33ZM61.28,26.57h.11l1.13-1.74c-.41.14-.75.24-1.08.37a.24.24,0,0,0-.15.19C61.27,25.79,61.28,26.18,61.28,26.57Zm1.79,44a3.7,3.7,0,0,0-.58.16.32.32,0,0,0-.17.22c0,.33,0,.65,0,1a4.71,4.71,0,0,0,.58-.15.31.31,0,0,0,.17-.21C63.08,71.27,63.07,70.93,63.07,70.56Zm-3.73-3.38c0,.34.08.65.14,1a.3.3,0,0,0,.23.16c.1,0,.26-.06.28-.13.1-.32.15-.64.22-1l-.2,0Zm-4.9-46.9-.82.08c-.42,0-.56.17-.58.58,0,.17,0,.34,0,.56ZM85.05,85V85a4.05,4.05,0,0,1-2-.15v.82ZM64.94,20.29l1.37,1.21c0-.18,0-.3,0-.42a.61.61,0,0,0-.58-.72C65.52,20.32,65.28,20.32,64.94,20.29ZM37,84.46a2.81,2.81,0,0,1-1.6.61l1.6.44ZM56.85,28.68l-.06,0,.69,1.86h.07c.06-.29.12-.57.17-.86a.15.15,0,0,0,0-.12C57.41,29.28,57.13,29,56.85,28.68Zm45.6,45.91-.07,0-1.15,1.09c.35.21.59.23.7,0C102.12,75.32,102.28,75,102.45,74.59ZM61.87,22.29A1.39,1.39,0,0,0,61.24,24,3.9,3.9,0,0,0,61.87,22.29ZM50,19.56l.1.06L51,18.46l-.42-.35Zm18.79-1.37-.35.3.89,1.18A2.64,2.64,0,0,0,68.78,18.19ZM63,68.24l-.06.45c-.06.46-.06.46.37.6,0,0,0,0,.07,0s.05-.32.08-.48C63.54,68.41,63.47,68.31,63,68.24ZM17,74.58l-.06,0c.1.24.19.49.3.72.18.39.35.44.75.19Zm39.31-6.44-.5.2.13.89C56.4,69,56.47,68.8,56.35,68.14ZM54,78.5c.08.52-.17,1.07.33,1.51C54.35,79.47,54.64,78.93,54,78.5Zm7-49.76.79-1.27a.49.49,0,0,0-.24.11c-.12.09-.24.18-.35.28C60.83,28.18,60.83,28.2,61,28.74ZM57.6,26c.2-.76,0-1.05-.7-1.1ZM65,70.72v-1l-.64.18Zm2-57v.5l-.26.06,1.19.35,0,0Zm-15.27.13-.87.8,0,0,1-.31Zm.75,8.81h.06l.34-.76-.52-.4Zm14.36,0h.06L67,21.49l-.5.4ZM61,19.27l0,.58.41-.5Zm-3.58,3,.25.79C57.83,22.59,57.79,22.47,57.43,22.25Zm-.12,40.39c0-.33,0-.43-.36-.49Z"/></g></g></svg>