<svg xmlns="http://www.w3.org/2000/svg" viewBox="0 0 194 66"><defs><style>.cls-1{fill:#373930;}</style></defs><title>jprel</title><g id="Layer_2" data-name="Layer 2"><g id="Layer_1-2" data-name="Layer 1"><g id="Layer_2-2" data-name="Layer 2"><g id="Layer_1-2-2" data-name="Layer 1-2"><path class="cls-1" d="M60.22,0H3.78A3.79,3.79,0,0,0,0,3.78V62.22A3.79,3.79,0,0,0,3.78,66H60.22A3.79,3.79,0,0,0,64,62.22V3.78A3.79,3.79,0,0,0,60.22,0ZM8.1,34A2.87,2.87,0,0,1,7,31.76V26h5v4h2v5H10.71a3.89,3.89,0,0,1-2.61-1ZM15,42h1V54H15v4H11V38h4Zm8,16H18V50H17V46h1V38h5ZM21,32.45A3.44,3.44,0,0,1,17.66,36H15V31h1V14.8h0V7h5Zm10,9.4h0v7h0V52.7h0V58H27V38h4ZM33.6,58,32,53.36V50h1V43H32V38h2.19a2.36,2.36,0,0,1,1.08.26,2.94,2.94,0,0,1,.89.72,3.32,3.32,0,0,1,.61,1A3.7,3.7,0,0,1,37,41.25v8.12a3.64,3.64,0,0,1-.49,1.88,2.83,2.83,0,0,1-1.26,1.16L37.16,58ZM39,7.49,28.71,36H24v-.49L34.24,7H39ZM46,42H45V54h1v4H43.94a1.87,1.87,0,0,1-2.13-.59A3,3,0,0,1,41,55.14v-13a2.51,2.51,0,0,1,.19-1.24,3.29,3.29,0,0,1,.64-1,2.79,2.79,0,0,1,.94-.69A1.84,1.84,0,0,0,43.94,38H46Zm0-29.73V23h2v5H46v8H41V7h5Zm6,42.87a4.84,4.84,0,0,1-.29,1.25,3.14,3.14,0,0,1-.65,1,3.32,3.32,0,0,1-.94.68A1,1,0,0,1,49,58H47V54h1V42H47V38h2a1.86,1.86,0,0,0,1.16,1.21,3.17,3.17,0,0,1,.94.69,3.52,3.52,0,0,1,.65,1A4.86,4.86,0,0,1,52,42.14ZM57,23.3a4.66,4.66,0,0,1-.38,1.84,4.54,4.54,0,0,1-1,1.49,5.18,5.18,0,0,1-1.5,1,4.45,4.45,0,0,1-1.83.38H49V23h3V12H49V7h3.26a4.45,4.45,0,0,1,1.83.38,4.65,4.65,0,0,1,2.5,2.48A4.53,4.53,0,0,1,57,11.68Z"/><polyline class="cls-1" points="73 26 77 26 77 35 80 35 80 16 78 16 78 24 73 24 73 16 70 16 70 35 73 35 73 26"/><path class="cls-1" d="M86.11,16.76,81.71,36h2.6l1.09-5h3.71l1.09,5h2.71L88.5,16H86m-.5,12,1-4.73c.28-1.25.55-2.86.78-4.27h.08c.22,1.38.47,2.94.75,4.27l1,4.73Z"/><rect class="cls-1" x="94" y="16" width="3" height="19"/><polyline class="cls-1" points="108 16 98 16 98 19 102 19 102 36 104 36 104 19 108 19 108 16"/><rect class="cls-1" x="109" y="16" width="3" height="19"/><path class="cls-1" d="M121,35h2.73L119.5,16h-2.4l-4.34,19h2.12L116,29h4.33l1.26,5.77M116.5,28l1-4.73c.27-1.25.55-2.86.77-4.27h.09c.22,1.38.47,2.94.74,4.27l1,4.73Z"/><path class="cls-1" d="M136,16h-3v7c0,3.39.09,5.92.26,9h-.06c-.66-2.12-1.68-4.7-2.49-6.82L127.11,16H125V35h3V28.68c0-3.91-.06-6.24-.23-8.68h.06a54.64,54.64,0,0,0,2.35,6.21L133.91,35H136V16"/><path class="cls-1" d="M145,28h1.36a4,4,0,0,1,2.91,3.14,42.3,42.3,0,0,0,1,4.86h2.06a50.25,50.25,0,0,1-1-5c-.37-2.39-1.06-3.7-2.25-4.11h0A5.6,5.6,0,0,0,151,19.23a5.35,5.35,0,0,0-.47-.67,5.37,5.37,0,0,0-4-1.3c-1,0-3.46.35-3.46.35V36h3V26m-1-8.37a5.1,5.1,0,0,1,1.17-.11c2.34,0,3.26,1.4,3.26,3.63S148.13,25,146,25h-.94Z"/><polyline class="cls-1" points="162 33 157 33 157 26 162 26 162 25 157 25 157 17 162 17 162 16 154 16 154 35 162 35 162 33"/><polyline class="cls-1" points="171 33 166 33 166 16 163 16 163 35 171 35 171 33"/><rect class="cls-1" x="173" y="16" width="3" height="19"/><polyline class="cls-1" points="185 33 180 33 180 26 185 26 185 25 180 25 180 17 185 17 185 16 178 16 178 35 186 35 186 33"/><polyline class="cls-1" points="186 16 186 36 189 36 189 26 194 26 194 25 189 25 189 17 194 17 194 16 187 16"/><path class="cls-1" d="M75.17,39.06c-3.34,0-5.65,3.46-5.65,9.83s2.14,9.87,5.34,9.87,5.57-2.76,5.57-10c0-6.14-2-9.71-5.26-9.71M75,56.81c-2.46,0-3.23-3.94-3.23-7.91S72.57,41,75,41s3.14,4.25,3.14,7.85c0,3.78-.64,8-3.11,8Z"/><path class="cls-1" d="M88,49v-.34a4.43,4.43,0,0,0,2.69-4.32,4.57,4.57,0,0,0-1.17-3.29,5.18,5.18,0,0,0-3.78-1.19,11,11,0,0,0-2.74.32V58h2V50h.74c1.89.17,2.72,1.14,3.14,3.8a26.19,26.19,0,0,0,1,4.2h2.23A26,26,0,0,1,91,53.15c-.39-2.52-1.14-3.89-2.56-4.32M85.91,49H85V41.63a5.1,5.1,0,0,1,1.17-.11c2.34,0,3.25,1.4,3.25,3.63S88,49,85.94,49Z"/><path class="cls-1" d="M98,50h3v6.59c.06.12-.37.23-1.11.23-2.31,0-4.57-1.91-4.57-7.85s2.6-7.88,5-7.88a4.64,4.64,0,0,1,2.2.46l.48-1.88a5.78,5.78,0,0,0-2.71-.55c-3.4,0-7.22,2.54-7.25,10,0,3.54.91,6.2,2.31,7.68a5.82,5.82,0,0,0,4.54,1.86A4.07,4.07,0,0,0,102,58V49H98v1"/><path class="cls-1" d="M109.32,38.76,104.93,58h2.57l1.09-5h3.71l1.09,5H116l-4.23-19H109m-.31,12,1-4.74c.28-1.24.56-2.85.78-4.26h0c.22,1.38.47,2.94.75,4.26l1,4.74Z"/><path class="cls-1" d="M125.75,47.15c0,3.34.09,5.82.26,8.85h.18c-.67-2.12-1.69-4.7-2.5-6.82L120.09,40H118V58h1V51.88a33.11,33.11,0,0,0,.64-9.88h.06A41.19,41.19,0,0,0,122,49.29L125.67,58H127V39h-1v7"/><rect class="cls-1" x="130" y="39" width="3" height="19"/><polyline class="cls-1" points="136 41 141 41 141 41.06 134 56.79 134 58 144 58 144 57 137 57 137 56.83 144 41.04 144 40 136 40 136 41"/><path class="cls-1" d="M149.42,38.76,145,58h2.59l1.09-5h3.72l1.09,5h2.59l-4.23-19H149m-.21,12,1-4.74c.27-1.24.55-2.85.77-4.26h.09c.22,1.38.47,2.94.74,4.26l1,4.74Z"/><polyline class="cls-1" points="156 41 158 41 158 58 161 58 161 41 165 41 165 40 156 40 156 41"/><rect class="cls-1" x="166" y="39" width="3" height="19"/><path class="cls-1" d="M176.6,39.06c-3.34,0-5.65,3.46-5.65,9.83s2.14,9.87,5.34,9.87,5.57-2.76,5.57-10c0-6.14-2-9.71-5.26-9.71m-.1,17.77c-2.45,0-3.22-3.94-3.22-7.91s.77-7.9,3.19-7.9,3.14,4.25,3.14,7.85C179.57,52.63,178.92,56.82,176.5,56.82Z"/><path class="cls-1" d="M192,47.15c0,3.34.09,5.82.26,8.85h.93c-.67-2.12-1.69-4.7-2.5-6.82L187.09,40H185V58h1V51.88c.12-4.11.06-6.56-.11-9.88H186a40.38,40.38,0,0,0,2.31,7.29L191.91,58H194V39h-1v7"/></g></g></g></g></svg>