<?xml version="1.0" encoding="utf-8"?>
<!-- Generator: Adobe Illustrator 22.1.0, SVG Export Plug-In . SVG Version: 6.00 Build 0)  -->
<svg version="1.1" id="Layer_1" xmlns="http://www.w3.org/2000/svg" xmlns:xlink="http://www.w3.org/1999/xlink" x="0px" y="0px"
	 viewBox="0 0 148 143.7" style="enable-background:new 0 0 148 143.7;" xml:space="preserve">
<style type="text/css">
	.st0{fill:#ECE5C9;}
</style>
<title>logo</title>
<g id="Layer_2_1_">
	<g id="Layer_1-2">
		<path class="st0" d="M81,117.3c0-2.8,0.3-5.5,0.4-8.3c0.2-12.6,1.4-25.2,3.5-37.7c0.1-1.8,1.5-3.3,3.3-3.5
			c8.2-1.7,15.8-5.5,22.1-11c7-6.3,11.4-13.9,11.3-23.7c0-2-0.7-2.7-2.7-2.7c-6.6,0-13,1.8-18.6,5.2C90.9,41.5,85,50.2,81.2,60.3
			c-0.5,1.8-2.2,3-4,2.8c-2.5,0-5,0-7.6,0c-1.7,0.1-3.2-1-3.6-2.6c-1.7-4.7-4-9.1-6.9-13.2C51.5,37,41.8,30.6,28.6,30.4
			c-3,0-3.1,0.1-3.1,3.2c-0.1,9.5,4.3,16.9,11.1,23C43,62.5,50.8,66,59.1,67.9c1.6,0.4,2.6,1,2.9,2.8c1.5,8.5,2.6,17.1,3.1,25.7
			c0.4,7,0.7,14,0.9,21c0.1,2.1,1.3,2.1,2.8,2.1s2.8-0.2,2.7-2.2c-0.1-2.4,0-4.9,0-7.3c0-6-0.5-12-0.8-18.1
			c-0.4-6.7-1.1-13.3-2-19.9c-0.2-1.7,0.4-2.5,2.1-2.4s3.6,0.1,5.4,0s2.3,0.8,2.1,2.4c-1.6,10.1-2.1,20.2-2.7,30.4
			c-0.3,5-0.1,10-0.2,14.9c0,2.1,1.3,2.1,2.8,2.1S81,119.4,81,117.3z M88.5,59.6c5-10.5,11.8-18.9,23.7-21.9
			c0.9-0.2,2.2-0.8,2.4,0.9c-0.8,3.7-2.6,7.1-5.1,10c-5.2,6.2-11.9,10-19.6,12.2c-0.5,0.1-1,0.5-1.4,0.1S88.2,60,88.5,59.6
			L88.5,59.6z M58.7,60.8c-0.5,0.7-1.2,0.1-1.8-0.1c-9-2.8-16.6-7.5-21.7-15.6c-1.2-2-2.1-4.1-2.6-6.3c0-1.8,1.2-1.3,2.2-1.1
			c5.9,1.4,11.3,4.5,15.4,9c3.4,3.6,6.2,7.8,8.2,12.3C58.6,59.5,59.2,60.2,58.7,60.8z"/>
		<path class="st0" d="M90.6,116.5c0.1-2.7,0.4-5.4,0.9-8c0.3-2.1,1.3-3.2,3.5-3.6c10.3-2.2,20-6,28.3-12.8c7.1-5.8,12-12.8,12-22.5
			c0-2.2-0.6-3.1-2.9-3c-5.2,0-10.4,0.9-15.3,2.8c-20.5,8.5-29.5,25-31.9,46c0,0.3,0,0.7,0,1c-0.3,1.7-0.4,3.1,2,3.1
			C90.1,119.5,90.6,119.2,90.6,116.5z M106.6,82.9c5.3-4.7,11.7-7.8,18.6-9.1c0.9-0.2,2-0.6,2.7,0.3c0.7,0.9-0.1,1.7-0.4,2.5
			c-1.7,4.5-4.9,7.8-8.6,10.8c-6,4.8-17.5,10-23.8,10.7C97.8,92.2,101.7,87,106.6,82.9z"/>
		<path class="st0" d="M55.4,108.2c0.5,2.7,0.9,5.5,1,8.2c0,2.8,0.6,3.1,3.4,3c2.4,0,2.3-1.4,2.1-3.1c0-0.3,0-0.7,0-1
			C61.3,102.9,56.4,91,48,81.8c-8.4-9.7-20.7-15.2-33.5-15.2c-2,0-2.7,0.8-2.7,2.7c-0.2,9.8,4.8,16.9,11.9,22.8
			c8.3,6.8,18.1,10.6,28.5,12.8C53.9,105.1,55.3,106.5,55.4,108.2z M32.7,90.6c-5.5-3.4-10.3-7.5-13-13.5c-0.4-1-1.4-2.1-0.5-3.1
			c0.8-0.8,2-0.3,3-0.1c13.2,2.9,22.4,10.9,28.8,22.5c0.2,0.4,0.4,0.9,0.8,1.9C45.1,96.7,38.7,94.1,32.7,90.6z"/>
		<path class="st0" d="M75.1,46.4c11.7-12.5,11.7-33,0-45.4c-1.3-1.4-2.1-1.2-3.3,0.1c-5.7,6.4-8.6,13.9-8.7,23.4
			c0.1,8.1,3.2,15.9,8.7,21.9C73.1,47.6,73.7,47.8,75.1,46.4z M72.2,9.7c0.3-0.6,0.6-1.5,1.5-1.4c0.7,0.1,1,0.8,1.2,1.4
			c4.6,9.3,4.5,18.7,0.1,28c-0.3,0.6-0.6,1.5-1.4,1.5s-1.1-0.9-1.4-1.5c-2.2-4.4-3.4-9.3-3.4-14.3C69,18.7,69.7,14,72.2,9.7z"/>
		<polygon class="st0" points="8,136.7 2,136.7 2,131.7 0,131.7 0,143.7 2,143.7 2,138.7 8,138.7 8,143.7 10,143.7 10,131.7 
			8,131.7 		"/>
		<path class="st0" d="M15.9,132.7l-4.9,11h1.9l1.1-3h5.6l1.1,3h1.9l-4.8-11H15.9z M14.7,138.7l2.1-4.9l2.1,4.9H14.7z"/>
		<rect x="24" y="132.7" class="st0" width="2" height="11"/>
		<polygon class="st0" points="28,133.7 31,133.7 31,142.7 33,142.7 33,133.7 37,133.7 37,131.7 28,131.7 		"/>
		<rect x="38" y="132.7" class="st0" width="2" height="11"/>
		<polygon class="st0" points="55,131.7 46,131.7 46,133.7 50,133.7 50,142.7 52,142.7 52,133.7 55,133.7 		"/>
		<path class="st0" d="M59.2,132.7l-4.9,11h1.9l1.1-3h5.6l1.1,3h1.9l-4.8-11H59.2z M58,138.7l2.1-4.9l2.1,4.9H58z"/>
		<polygon class="st0" points="77,132.7 74.7,132.7 69,138.4 69,132.7 67,132.7 67,143.7 69,143.7 69,140.9 71,138.9 74.9,143.7 
			77.3,143.7 72.4,137.4 		"/>
		<polygon class="st0" points="81,138.7 86,138.7 86,136.7 81,136.7 81,133.7 87,133.7 87,131.7 79,131.7 79,143.7 87,143.7 
			87,141.7 81,141.7 		"/>
		<path class="st0" d="M91,135.1c0-0.8,0.7-1.2,1.8-1.2c1.1,0.1,2.2,0.4,3.2,1.1l0.8-1.6c-1.2-0.7-2.5-1.1-3.9-1.1
			c-2.4,0-4,1.2-4,3.1c0,4,6,2.6,6,5.1c0,0.9-0.8,1.4-2.1,1.4c-1.4-0.1-2.8-0.6-3.8-1.6l-0.8,1.6c1.2,1.1,2.9,1.8,4.5,1.8
			c2.4,0,4.2-1.2,4.2-3.2C97,136.2,91,137.5,91,135.1z"/>
		<path class="st0" d="M112.9,136.1c0-2.4-1.6-3.8-4.5-3.3H104v10h2v-3h2.4c0.2,0.3,0.3,0.3,0.5,0.3l2,2.7h2.1l-2.5-3.1
			C112,139.1,113,137.6,112.9,136.1z M108.4,137.7H106v-4h2.4c1.6,0,2.4,0.6,2.4,2S110,137.7,108.4,137.7z"/>
		<path class="st0" d="M120.3,132.2c-3.1,0.1-5.5,2.8-5.4,5.9c0.1,3.1,2.8,5.5,5.9,5.4c3-0.1,5.4-2.6,5.4-5.6c0-3.1-2.6-5.6-5.7-5.6
			C120.5,132.2,120.4,132.2,120.3,132.2z M120.3,141.8c-2.2,0-4-1.8-4-4s1.8-4,4-4s4,1.8,4,4S122.6,141.8,120.3,141.8z"/>
		<path class="st0" d="M132.8,132.2c-3.1,0.1-5.5,2.8-5.4,5.9c0.1,3.1,2.8,5.5,5.9,5.4c3-0.1,5.4-2.6,5.4-5.6c0-3.1-2.6-5.6-5.7-5.6
			C132.9,132.2,132.8,132.2,132.8,132.2z M132.8,141.8c-2.2,0-4-1.8-4-4s1.8-4,4-4s4,1.8,4,4S135,141.8,132.8,141.8z"/>
		<polygon class="st0" points="139,131.7 139,133.7 143,133.7 143,142.7 145,142.7 145,133.7 148,133.7 148,131.7 		"/>
	</g>
</g>
</svg>
