<svg xmlns="http://www.w3.org/2000/svg" viewBox="0 0 497.25 497.25"><defs><style>.cls-1{fill:#ece5d1;}</style></defs><title>next</title><g id="Layer_2" data-name="Layer 2"><g id="Layer_1-2" data-name="Layer 1"><g id="Layer_2-2" data-name="Layer 2"><g id="Capa_1" data-name="Capa 1"><path class="cls-1" d="M248.62,0C111.54,0,0,111.55,0,248.63S111.55,497.25,248.63,497.25,497.25,385.71,497.25,248.62,385.7,0,248.62,0Zm95.63,248.63a28.77,28.77,0,0,1-9.3,21.15L220.21,374.94l-.05-.08a28.58,28.58,0,1,1-38.64-42.13l-.06-.08,91.69-84.06-91.69-84,.06-.08h0a28.59,28.59,0,0,1,38.67-42.13l.06-.08L335,227.46a28.79,28.79,0,0,1,9.3,21.16Z"/></g></g></g></g></svg>