<svg xmlns="http://www.w3.org/2000/svg" viewBox="0 0 207 56.25"><defs><style>.cls-1{fill:#373930;}</style></defs><title>parkerfound</title><g id="Layer_2" data-name="Layer 2"><g id="Layer_1-2" data-name="Layer 1"><path class="cls-1" d="M48.11,4.39h.21V3.84h-5v.55h.21A1,1,0,0,1,44.6,5.45v7.2H34.23V5.45a1,1,0,0,1,1.05-1.06h.22V3.84h-5v.55h.21a1,1,0,0,1,1.06,1.06V20.94A1,1,0,0,1,30.71,22H30.5v.55h5V22h-.22a1,1,0,0,1-1.05-1.06V13.76H44.6v7.18A1,1,0,0,1,43.54,22h-.21v.55h5V22h-.21a1,1,0,0,1-1.06-1.06V5.45A1,1,0,0,1,48.11,4.39Z"/><path class="cls-1" d="M65.81,19l0,.2a1.91,1.91,0,0,1-2,1.91h-4.3A1.35,1.35,0,0,1,58,19.64V13.76h4.92c.69,0,.74.45.74.59v.22h.56V11.84h-.56v.21c0,.14-.05.6-.74.6H58V5.28h5.42a1.28,1.28,0,0,1,1.35,1.38v.21h.55V6.66c0-.07,0-1.63-.07-2.63V3.84H53.92v.55h.21a1.29,1.29,0,0,1,1.38,1.38V20.62A1.29,1.29,0,0,1,54.13,22h-.21v.55H66l0-.17c.19-.94.3-3.07.31-3.16V19Z"/><path class="cls-1" d="M168.7,19v.2a1.92,1.92,0,0,1-2,1.91h-4.31a1.35,1.35,0,0,1-1.48-1.47V13.76h4.93c.68,0,.74.45.74.59v.22h.55V11.84h-.55v.21c0,.14-.06.6-.74.6h-4.93V5.28h5.42a1.29,1.29,0,0,1,1.36,1.38v.21h.55V6.66c0-.07,0-1.63-.06-2.63l0-.19h-11.3v.55H157a1.29,1.29,0,0,1,1.37,1.38V20.62A1.29,1.29,0,0,1,157,22h-.22v.55H168.9l0-.17a30.37,30.37,0,0,0,.31-3.16V19Z"/><path class="cls-1" d="M9.2.11v3h.58V2.88a1.28,1.28,0,0,1,1.33-1.32h5.68V20.65A1.27,1.27,0,0,1,15.47,22h-.21v.58h5.53V22h-.22a1.28,1.28,0,0,1-1.32-1.32V1.56h5.69a1.28,1.28,0,0,1,1.32,1.32v.21h.58v-3Z"/><path class="cls-1" d="M125.38,13.74a4.9,4.9,0,0,0,2.9-4.61c0-3.06-2.56-5.29-6.09-5.29h-5.75v.55h.21A1.31,1.31,0,0,1,118,5.78V20.56A1.31,1.31,0,0,1,116.65,22h-.21v.55h5.63V22h-.21a1.32,1.32,0,0,1-1.38-1.5V14.39h1.58c.25,0,.49,0,.73,0,.31.44.6.84.89,1.23,2.21,3,6.35,8.34,10.07,7l.17-.46c-1.09.1-2.25-.66-3.89-2.26A46.34,46.34,0,0,1,125.38,13.74Zm-4.08-.52h-.82V5.28h.85a7,7,0,0,1,2.19.23,4.46,4.46,0,0,1,1,.59,4,4,0,0,1,1.28,3.16,4.16,4.16,0,0,1-1.28,3.05A4.52,4.52,0,0,1,121.3,13.22Z"/><path class="cls-1" d="M91.59,6.36h0c0-4.52-2.8-6.36-7.33-6.36H77.55l.23.58H78c.85,0,1.71.32,1.71,1.51v18.1A1.62,1.62,0,0,1,78,22h-.21v.58h6.29V22h-.22a1.64,1.64,0,0,1-1.7-1.86V12.8A21.38,21.38,0,0,0,87,12.46l.35-.1.34-.1A5.68,5.68,0,0,0,89.9,10.9l0,0a2.73,2.73,0,0,0,.23-.25,6.41,6.41,0,0,0,1.42-4.26ZM82.15,1.44h1.3a6.58,6.58,0,0,1,3.66.81,5.29,5.29,0,0,1,2,3.54c0,.23,0,.47,0,.72A6.55,6.55,0,0,1,89,7.85c-.95,4.41-5.68,3.78-6.84,3.78Z"/><path class="cls-1" d="M197.8,25a4.63,4.63,0,0,1-2.07-.41c-3-1.19-5.57-3.63-9.28-7.82a28.67,28.67,0,0,1-2.26-3h0a4.9,4.9,0,0,0,2.9-4.6c0-3.07-2.56-5.3-6.09-5.3h-5.75v.56h.21a1.31,1.31,0,0,1,1.38,1.39V20.56A1.31,1.31,0,0,1,175.46,22h-.21v.56h5.63V22h-.21a1.33,1.33,0,0,1-1.38-1.5v-6.1h1.58c.25,0,.49,0,.73,0h0l.79,1.11A45.47,45.47,0,0,0,186,19.74a31.07,31.07,0,0,0,5.2,4.53h0a9.74,9.74,0,0,0,1.93.93,6.49,6.49,0,0,0,3.87.41,2.28,2.28,0,0,0,.69-.23ZM180.11,13.21h-.82V5.28h.85a7.41,7.41,0,0,1,2.19.22,4.28,4.28,0,0,1,1,.6,4,4,0,0,1,1.28,3.15,4.16,4.16,0,0,1-1.28,3.05A4.5,4.5,0,0,1,180.11,13.21Z"/><path class="cls-1" d="M152.69,22A4.46,4.46,0,0,1,150,20.38l-7.91-7.91L148.54,6a4.46,4.46,0,0,1,2.69-1.62h.21V3.84h-4.76v.55h.22a.52.52,0,0,1,.52.28.43.43,0,0,1-.09.47L140.49,12V5.45a1,1,0,0,1,1.06-1.06h.21V3.84h-5v.55H137A1,1,0,0,1,138,5.45V20.94A1,1,0,0,1,137,22h-.22v.55h5V22h-.21a1,1,0,0,1-1.06-1.06V14.33l8.22,8.22h4.19V22Z"/><path class="cls-1" d="M113.06,22a2.28,2.28,0,0,1-2.17-1.56L103.14,2.79a2.58,2.58,0,0,1-.78.92,1.8,1.8,0,0,1-1.39.37L94.41,20.45A2.37,2.37,0,0,1,92.21,22H92v.55h5.1V22h-.22a1,1,0,0,1-1-1.42l2.46-6.19h7.18l2.7,6.19a1,1,0,0,1-1,1.42h-.22v.55h6.21V22ZM98.84,13.22l.1-.24h0l2.88-7.18L104.94,13h0l.1.24Z"/><path class="cls-1" d="M27.69,36.09a10.18,10.18,0,0,0-10,10.08,9.94,9.94,0,0,0,10,10.08,9.82,9.82,0,0,0,10-10.08A9.93,9.93,0,0,0,27.69,36.09ZM35,46.68c0,4.72-2.75,8-6.85,8-4.31,0-7.7-3.91-7.7-8.71,0-5.41,3.43-8.33,6.77-8.33C32.61,37.67,35,42.34,35,46.68Z"/><path class="cls-1" d="M55.29,36.26v.59h.22A1,1,0,0,1,56.62,38V48.51c0,3.56-2.24,5.86-5.7,5.86s-5.69-2.3-5.69-5.86V38.37a1.38,1.38,0,0,1,1.46-1.52h.22v-.59H41v.59h.22a1.39,1.39,0,0,1,1.46,1.52v10c0,4.82,3,7.93,7.76,7.93s7.75-3.18,7.75-7.93V38a1,1,0,0,1,1.11-1.15h.22v-.59Z"/><path class="cls-1" d="M79.3,36.26v.59h.23A1.43,1.43,0,0,1,81,38.27V51.12L67.27,36.26H63.38v.59h.23a2.71,2.71,0,0,1,2.73,2.67l.1,14.55A1.43,1.43,0,0,1,65,55.5h-.23v.58h4.94V55.5h-.22A1.38,1.38,0,0,1,68,54.07l-.07-13.3L82.06,56.08h.45V38.27A1.38,1.38,0,0,1,84,36.85h.23v-.59Z"/><path class="cls-1" d="M202.08,36.26v.59h.22a1.42,1.42,0,0,1,1.49,1.42V51.12L190.05,36.26h-3.89v.59h.23a2.72,2.72,0,0,1,2.73,2.67l.1,14.55a1.43,1.43,0,0,1-1.49,1.43h-.23v.58h4.95V55.5h-.23a1.39,1.39,0,0,1-1.49-1.43l-.06-13.3,14.16,15.31h.46V38.27a1.38,1.38,0,0,1,1.48-1.42H207v-.59Z"/><path class="cls-1" d="M97.4,36.26H89v.59h.22c1.3,0,2.08.89,2.08,2.39V53.1c0,1.5-.78,2.4-2.08,2.4H89v.58h8c7.27,0,11.61-3.7,11.61-9.91S104.35,36.26,97.4,36.26Zm8.66,9.91c0,4.86-3.76,8.38-8.93,8.38H95.74c-1.26,0-1.83-.57-1.83-1.87V37.79h3C102.55,37.79,106.06,41,106.06,46.17Z"/><path class="cls-1" d="M133.09,36.26v2.87h.59v-.22a1.08,1.08,0,0,1,1.11-1.12h4.76V54.38a1.08,1.08,0,0,1-1.12,1.12h-.23v.58h5.3V55.5h-.23a1.08,1.08,0,0,1-1.12-1.12V37.79h4.75A1.08,1.08,0,0,1,148,38.91v.22h.59V36.26Z"/><path class="cls-1" d="M158.63,36.85h.23v-.59h-5.29v.59h.22A1.08,1.08,0,0,1,154.91,38V54.38a1.08,1.08,0,0,1-1.12,1.12h-.22v.58h5.29V55.5h-.23a1.08,1.08,0,0,1-1.11-1.12V38A1.08,1.08,0,0,1,158.63,36.85Z"/><path class="cls-1" d="M173.46,36.09a10.18,10.18,0,0,0-10,10.08,9.94,9.94,0,0,0,10,10.08,9.82,9.82,0,0,0,10-10.08A9.93,9.93,0,0,0,173.46,36.09Zm7.28,10.59c0,4.72-2.75,8-6.86,8-4.3,0-7.69-3.91-7.69-8.71,0-5.41,3.43-8.33,6.77-8.33C178.38,37.67,180.74,42.34,180.74,46.68Z"/><path class="cls-1" d="M14.41,32.5l0-.21H0l.23.62H.46c1.09,0,1.8.48,1.8,1.57V53.66a1.69,1.69,0,0,1-1.8,1.81H.23v.61H6.9v-.61H6.67a1.7,1.7,0,0,1-1.81-1.81V44.84h6.6c.92,0,1,.62,1,.81v.23h.62V42.63h-.62v.22c0,.2-.07.82-1,.82H4.86V33.82h7.23a1.68,1.68,0,0,1,1.79,1.8v.23h.61v-.22A30.17,30.17,0,0,0,14.41,32.5Z"/><path class="cls-1" d="M132.39,55.5a2.41,2.41,0,0,1-2.29-1.65l-8.22-18.7a2.76,2.76,0,0,1-.83,1,1.87,1.87,0,0,1-1.47.38l-7,17.34a2.51,2.51,0,0,1-2.33,1.65h-.23v.58h5.4V55.5h-.23a1.09,1.09,0,0,1-1-1.51l2.6-6.55h7.6L127.29,54a1,1,0,0,1-.08,1,1.12,1.12,0,0,1-.94.5h-.22v.58h6.57V55.5Zm-15.06-9.3.1-.25h0l3-7.62L123.79,46h0l.11.25Z"/></g></g></svg>