<svg xmlns="http://www.w3.org/2000/svg" xmlns:xlink="http://www.w3.org/1999/xlink" viewBox="0 0 851.2 990.17">
    <defs>
        <style>
            .cls-1 {
                fill: none;
            }
            
            .cls-2,
            .cls-3 {
                isolation: isolate;
            }
            
            .cls-3 {
                opacity: 0.3;
                mix-blend-mode: multiply;
            }
            
            .cls-4 {
                clip-path: url(#clip-path);
            }
            
            .cls-5 {
                fill: #4b9e47;
            }
            
            .cls-6 {
                fill: #373930;
                fill-rule: evenodd;
                opacity: 0.5;
            }
        </style>
        <clipPath id="clip-path">
            <rect id="SVGID" class="cls-1" x="267.2" y="250" width="148" height="166" />
        </clipPath>
    </defs>
    <title>treehover</title>
    <g class="cls-2">
        <g id="Layer_2" data-name="Layer 2">
            <g id="Layer_1-2" data-name="Layer 1">
                <path id="leafone" data-blurb="Lorem ipsum dolor sit amet, consectetur adipiscing elit. Integer in pretium justo, accumsan convallis est. Quisque erat augue, gravida et efficitur vehicula, gravida eget diam." class="cls-5" d="M390.89,392a88.26,88.26,0,0,1-12.7-2.14,118.53,118.53,0,0,1-12.53-3.72,128,128,0,0,1-21.83-10.25,134.54,134.54,0,0,1-34.06-28.79A136,136,0,0,1,286.56,309a129.64,129.64,0,0,1-6.82-23.13,121.65,121.65,0,0,1-1.8-12.94,90.73,90.73,0,0,1-.22-12.82,90,90,0,0,1,12.66,2.16,121.3,121.3,0,0,1,12.5,3.75,128.72,128.72,0,0,1,21.82,10.26A139.29,139.29,0,0,1,382.12,343a128.56,128.56,0,0,1,6.81,23.14,121.61,121.61,0,0,1,1.77,13,88.7,88.7,0,0,1,.19,12.86" />
                <div class=pathwrap><path class="cls-5" d="M423,203.17a88.23,88.23,0,0,1,9.4,11.13,121.57,121.57,0,0,1,7.15,11.12,130.54,130.54,0,0,1,10,22.26,138.57,138.57,0,0,1,7.27,44.51,136.82,136.82,0,0,1-7.18,44.51,128.3,128.3,0,0,1-10,22.26,123.41,123.41,0,0,1-7.18,11.12A88,88,0,0,1,423,381.21a88.94,88.94,0,0,1-9.46-11.13A125.48,125.48,0,0,1,406.4,359a128.37,128.37,0,0,1-10-22.26,140.81,140.81,0,0,1,.1-89,129.76,129.76,0,0,1,10-22.26,121.57,121.57,0,0,1,7.15-11.12,88.23,88.23,0,0,1,9.4-11.13" /></div>
                <div class=pathwrap><path class="cls-5" d="M423,0a88.23,88.23,0,0,1,9.4,11.13,121.69,121.69,0,0,1,7.15,11.13,130.1,130.1,0,0,1,10,22.25A138.57,138.57,0,0,1,456.85,89a136.77,136.77,0,0,1-7.18,44.51,128.3,128.3,0,0,1-10,22.26,120.65,120.65,0,0,1-7.18,11.12A88,88,0,0,1,423,178a88.94,88.94,0,0,1-9.46-11.13,122.63,122.63,0,0,1-7.17-11.12,128.37,128.37,0,0,1-10-22.26A137,137,0,0,1,389.21,89a138.3,138.3,0,0,1,7.27-44.51,129.33,129.33,0,0,1,10-22.25,121.69,121.69,0,0,1,7.15-11.13A88.23,88.23,0,0,1,423,0" /></div>
                <div class=pathwrap><path class="cls-5" d="M157,89a88.55,88.55,0,0,1,14.38,2.33,120.4,120.4,0,0,1,12.67,3.8,128.6,128.6,0,0,1,22.07,10.39,138.28,138.28,0,0,1,34.49,29.05,136.83,136.83,0,0,1,23.53,38.47A129,129,0,0,1,271,196.47a122.43,122.43,0,0,1,1.8,13.12,88.55,88.55,0,0,1,.06,14.6,87.93,87.93,0,0,1-14.42-2.29,122.48,122.48,0,0,1-12.69-3.78,128.82,128.82,0,0,1-22.09-10.38,137.2,137.2,0,0,1-34.42-29.12,138.53,138.53,0,0,1-23.45-38.53,130.19,130.19,0,0,1-6.89-23.4,124.93,124.93,0,0,1-1.82-13.1A89.09,89.09,0,0,1,157,89" /></div>
                <div class=pathwrap><path class="cls-5" d="M309.62,89A89.9,89.9,0,0,1,322,96.72a124.74,124.74,0,0,1,10.22,8.4,129.39,129.39,0,0,1,16.34,18.12A140.6,140.6,0,0,1,376,207.93a128.06,128.06,0,0,1-2.7,24.25,120.62,120.62,0,0,1-3.41,12.8,89.07,89.07,0,0,1-5.58,13.49,88.54,88.54,0,0,1-12.42-7.69,121.38,121.38,0,0,1-10.24-8.39,128.91,128.91,0,0,1-16.37-18.1A140.74,140.74,0,0,1,298,139.53a130.52,130.52,0,0,1,2.69-24.25,124.28,124.28,0,0,1,3.38-12.78A89.21,89.21,0,0,1,309.62,89" /></div>
                <div class=pathwrap><path class="cls-5" d="M143.17,357.31a87.85,87.85,0,0,1,13-6.5,122.12,122.12,0,0,1,12.51-4.3,129.76,129.76,0,0,1,24-4.44,138.55,138.55,0,0,1,45,3.49,137.16,137.16,0,0,1,41.54,17.53,129,129,0,0,1,19.24,15,123.69,123.69,0,0,1,9.11,9.61,88.21,88.21,0,0,1,8.57,11.83,87.86,87.86,0,0,1-13.05,6.54,122.73,122.73,0,0,1-12.52,4.34,129.13,129.13,0,0,1-24,4.45,140.81,140.81,0,0,1-86.46-21.21,129.76,129.76,0,0,1-19.25-15,123.24,123.24,0,0,1-9.12-9.58,88.12,88.12,0,0,1-8.58-11.77" /></div>
                <div class=pathwrap><path class="cls-5" d="M178.38,522.71a89.39,89.39,0,0,1,5.21-13.61,122.45,122.45,0,0,1,6.29-11.62A129.87,129.87,0,0,1,204.55,478a140.67,140.67,0,0,1,77.92-43.06,129,129,0,0,1,24.32-2,124.33,124.33,0,0,1,13.21.91,88.9,88.9,0,0,1,14.31,2.91,88.24,88.24,0,0,1-5.18,13.66,123,123,0,0,1-6.28,11.65,128.42,128.42,0,0,1-14.66,19.51,136.8,136.8,0,0,1-35.52,27.77,138.66,138.66,0,0,1-42.49,15.12,129.94,129.94,0,0,1-24.32,2,123.57,123.57,0,0,1-13.19-.88,89.26,89.26,0,0,1-14.29-2.87" /></div>
                <div class=pathwrap><path class="cls-5" d="M0,261.67a88.87,88.87,0,0,1,13.67-5,120.42,120.42,0,0,1,12.91-2.91A129.5,129.5,0,0,1,50.91,252a138.25,138.25,0,0,1,44.31,8.4,136.91,136.91,0,0,1,39.37,22,128.84,128.84,0,0,1,17.48,17,124,124,0,0,1,8,10.55,88.59,88.59,0,0,1,7.22,12.69,87.54,87.54,0,0,1-13.69,5.08,123.66,123.66,0,0,1-12.91,2.93,129,129,0,0,1-24.34,1.79,136.68,136.68,0,0,1-44.28-8.49,138.13,138.13,0,0,1-39.33-22.07,129.32,129.32,0,0,1-17.49-17,121.42,121.42,0,0,1-8-10.52A88.1,88.1,0,0,1,0,261.67" /></div>
                <div class=pathwrap><path class="cls-5" d="M117.66,206.12a88.11,88.11,0,0,1,14.53-1.06,119.42,119.42,0,0,1,13.2.76,129.58,129.58,0,0,1,23.88,5,138.2,138.2,0,0,1,40.29,20.28,137.08,137.08,0,0,1,31.79,32,129.15,129.15,0,0,1,12.12,21.18,122.5,122.5,0,0,1,4.78,12.35,88.28,88.28,0,0,1,3.45,14.19,87.77,87.77,0,0,1-14.56,1.1,119.79,119.79,0,0,1-13.22-.73,129,129,0,0,1-23.9-5,137,137,0,0,1-40.22-20.36,138.42,138.42,0,0,1-31.74-32.05,129.46,129.46,0,0,1-12.12-21.17,120.52,120.52,0,0,1-4.81-12.32,89.05,89.05,0,0,1-3.47-14.15" /></div>
                <div class=pathwrap><path class="cls-5" d="M23.49,438.81A88.84,88.84,0,0,1,34,428.69a124.62,124.62,0,0,1,10.64-7.86,129.81,129.81,0,0,1,21.55-11.44,138.5,138.5,0,0,1,43.93-10.18A137.08,137.08,0,0,1,155,403.45,128,128,0,0,1,177.85,412a121.89,121.89,0,0,1,11.57,6.42,88.84,88.84,0,0,1,11.73,8.71,88.58,88.58,0,0,1-10.49,10.16A119.38,119.38,0,0,1,180,445.16a127.75,127.75,0,0,1-21.55,11.46,136.72,136.72,0,0,1-43.94,10.08,138.24,138.24,0,0,1-44.89-4.33,130.23,130.23,0,0,1-22.87-8.51,123.87,123.87,0,0,1-11.57-6.4,88.09,88.09,0,0,1-11.72-8.65" /></div>
                <div class=pathwrap><path class="cls-5" d="M569.72,258.47a88.76,88.76,0,0,0-14.38,2.32,125.35,125.35,0,0,0-12.67,3.79A131,131,0,0,0,520.59,275,138.51,138.51,0,0,0,486.09,304a137,137,0,0,0-23.54,38.45,128.69,128.69,0,0,0-6.89,23.41,123.14,123.14,0,0,0-1.8,13.12,87.42,87.42,0,0,0-.07,14.6,88,88,0,0,0,14.42-2.28,121.75,121.75,0,0,0,12.69-3.78A128.51,128.51,0,0,0,503,377.16a136.79,136.79,0,0,0,34.42-29.11,138.48,138.48,0,0,0,23.47-38.51,129.5,129.5,0,0,0,6.9-23.41A122.11,122.11,0,0,0,569.62,273a89.09,89.09,0,0,0,.1-14.57" /></div>
                <div class=pathwrap><path class="cls-5" d="M689.05,89a88.55,88.55,0,0,0-14.38,2.33A119.69,119.69,0,0,0,662,95.15a128.7,128.7,0,0,0-22.08,10.39,138.46,138.46,0,0,0-34.49,29.05,137,137,0,0,0-23.52,38.47A128.21,128.21,0,0,0,575,196.47a122.43,122.43,0,0,0-1.8,13.12,88.55,88.55,0,0,0-.06,14.6,88.11,88.11,0,0,0,14.42-2.29,122.48,122.48,0,0,0,12.69-3.78,128.82,128.82,0,0,0,22.09-10.38,137,137,0,0,0,34.41-29.12,138.3,138.3,0,0,0,23.45-38.53,129.39,129.39,0,0,0,6.9-23.4,124.93,124.93,0,0,0,1.82-13.1,89.09,89.09,0,0,0,.1-14.57" /></div>
                <div class=pathwrap><path class="cls-5" d="M536.44,89a89.9,89.9,0,0,0-12.36,7.7,123.07,123.07,0,0,0-10.22,8.4,130.1,130.1,0,0,0-16.35,18.12,138.51,138.51,0,0,0-20.58,40.12,137.05,137.05,0,0,0-6.83,44.57,128.06,128.06,0,0,0,2.7,24.25,120.62,120.62,0,0,0,3.41,12.8,88.05,88.05,0,0,0,5.58,13.49,88.54,88.54,0,0,0,12.42-7.69,121.38,121.38,0,0,0,10.24-8.39,128.2,128.2,0,0,0,16.36-18.1A140.74,140.74,0,0,0,548,139.53a129.64,129.64,0,0,0-2.68-24.25A124.28,124.28,0,0,0,542,102.5,89.21,89.21,0,0,0,536.44,89" /></div>
                <div class=pathwrap><path class="cls-5" d="M702.88,357.31a86.9,86.9,0,0,0-13-6.5,122,122,0,0,0-12.5-4.3,129.91,129.91,0,0,0-24-4.44,138.55,138.55,0,0,0-45,3.49,137,137,0,0,0-41.54,17.53,128,128,0,0,0-19.24,15,121.82,121.82,0,0,0-9.11,9.61,88.21,88.21,0,0,0-8.57,11.83A87.86,87.86,0,0,0,543,406.07a123.42,123.42,0,0,0,12.51,4.34,129.38,129.38,0,0,0,24,4.45,140.81,140.81,0,0,0,86.46-21.21,129.76,129.76,0,0,0,19.25-15,123.16,123.16,0,0,0,9.11-9.58,88.12,88.12,0,0,0,8.58-11.77" /></div>
                <div class=pathwrap><path class="cls-5" d="M667.68,522.71a89.39,89.39,0,0,0-5.21-13.61,122.48,122.48,0,0,0-6.3-11.62A129.83,129.83,0,0,0,641.51,478a140.67,140.67,0,0,0-77.92-43.06,129,129,0,0,0-24.33-2,124.32,124.32,0,0,0-13.2.91,88.68,88.68,0,0,0-14.31,2.91,88.24,88.24,0,0,0,5.18,13.66,120.76,120.76,0,0,0,6.28,11.65,127.76,127.76,0,0,0,14.66,19.51,136.8,136.8,0,0,0,35.52,27.77,138.47,138.47,0,0,0,42.49,15.12,129.87,129.87,0,0,0,24.32,2,123.74,123.74,0,0,0,13.19-.88,89.48,89.48,0,0,0,14.29-2.87" /></div>
                <div class=pathwrap><path class="cls-5" d="M851.2,261.67a88.87,88.87,0,0,0-13.67-5,120.26,120.26,0,0,0-12.9-2.91A129.56,129.56,0,0,0,800.3,252a140.74,140.74,0,0,0-83.68,30.37,128.9,128.9,0,0,0-17.49,17,124,124,0,0,0-8,10.55,88.57,88.57,0,0,0-7.21,12.69,87.54,87.54,0,0,0,13.69,5.08,123.09,123.09,0,0,0,12.91,2.93,128.83,128.83,0,0,0,24.34,1.79,136.73,136.73,0,0,0,44.28-8.49,138.4,138.4,0,0,0,39.33-22.07,129.9,129.9,0,0,0,17.49-17,123.46,123.46,0,0,0,8-10.52,88.08,88.08,0,0,0,7.23-12.65" /></div>
                <div class=pathwrap><path class="cls-5" d="M728.4,206.12a88.11,88.11,0,0,0-14.53-1.06,119.42,119.42,0,0,0-13.2.76,129.58,129.58,0,0,0-23.88,5,140.7,140.7,0,0,0-72.08,52.25,129.15,129.15,0,0,0-12.12,21.18,122.5,122.5,0,0,0-4.78,12.35,88.28,88.28,0,0,0-3.45,14.19,87.77,87.77,0,0,0,14.56,1.1,119.79,119.79,0,0,0,13.22-.73,128.7,128.7,0,0,0,23.89-5,137,137,0,0,0,40.23-20.36A138.42,138.42,0,0,0,708,253.76a130.19,130.19,0,0,0,12.12-21.17,122.88,122.88,0,0,0,4.81-12.32,89.05,89.05,0,0,0,3.47-14.15" /></div>
                <div class=pathwrap><path class="cls-5" d="M822.57,438.81a88.13,88.13,0,0,0-10.49-10.12,123,123,0,0,0-10.63-7.86,130.21,130.21,0,0,0-21.55-11.44A138.5,138.5,0,0,0,736,399.21a137,137,0,0,0-44.88,4.24A128,128,0,0,0,668.21,412a120.67,120.67,0,0,0-11.57,6.42,88.84,88.84,0,0,0-11.73,8.71,88.53,88.53,0,0,0,10.48,10.16A119.49,119.49,0,0,0,666,445.16a128,128,0,0,0,21.54,11.46,136.83,136.83,0,0,0,43.95,10.08,138.27,138.27,0,0,0,44.89-4.33,129.85,129.85,0,0,0,22.86-8.51,124,124,0,0,0,11.58-6.4,88.09,88.09,0,0,0,11.72-8.65" /></div>
                <path class="cls-6" d="M367.18,990.17s27.2-352.15,23.65-355.9l-2.82-3c-3-3.18-5.78-6.16-8.84-8.86-9.22-8.1-16.83-18.91-24-29C349,584.78,345,574.29,338.5,565.39c-6.08-8.31-13.33-15.5-18.8-24.51-1.89-3.11-5-6-5.86-9.87a26,26,0,0,1,3.31-2.76,16.69,16.69,0,0,1,16.52-1.84c8.74,3.44,16.35,12.55,21.08,18.49l.08.1a33,33,0,0,1,2.27,3.44c2.44,4.14,4.67,8.53,9.38,8.54,5.64-5.49,6.1-18.31,4.18-30.49q-.5-3.07-1.16-6c-1.87-8.31-6.66-18.85-11.59-29.1-2.36-4.92-4.75-9.77-6.87-14.27-1.26-2.7-4.18-8.68-6.76-15.44-4.61-12-8.15-26.55.55-29.34,7.76-2.49,12,5.8,15.94,12.63,8.91,15.6,13.48,27.68,20.38,42.12,1.2,2.51,2.66,5.85,4.24,9,2.6,5.16,5.53,9.76,8.21,9.21,3.51-.71,3.07-12.08,2.38-21.9-.16-2.2-.32-4.33-.47-6.24-.78-10.76-1.89-21.68-2.63-31.75-1-13.24-7.3-40.38,6.62-41.1,7.7-.39,10,4.25,12.07,14.95,3.73,19.3,5.14,43,8.12,61.31,1.41,8.62,3.22,22.37,8.84,22.76s7.38-11.37,9.22-18.64c1.94-7.68,3.93-16.19,5.45-24.41,1.91-10.36,2-44.83,15.57-44.2,9.71.45,8.13,14.94,7.58,20.84-.9,9.7-2.25,18.4-3.29,25.2-.94,6.13-2.35,13.8-3.5,21.29-2.13,13.9-3.36,27.14,1,28.64,3.56,1.22,8-4.07,12.29-10.94,3.78-6.07,7.41-13.37,10.15-18.55,5.54-10.43,14.52-32,25-25.63a4.91,4.91,0,0,1,2.25,3.56c1.18,6.63-5.26,19.8-12.32,33.75-5.29,10.44-10.92,21.32-14,30.22,0,.14-.1.28-.14.42-4.46,13.19-3.66,30.3-5,46.82-.12,1.49-.27,3-.43,4.47-.47,4.29-.89,9.41-1.41,14.8-1,10.44-2.42,21.87-5.33,30.07a21.87,21.87,0,0,1-4.67,7.56,4.68,4.68,0,0,0,0,1.93c1.58,15,21.61,359.7,21.61,359.7" />
                <polyline class="cls-1" points="537.69 986 537.69 378 304.71 378 304.71 986" />
                <polyline class="cls-1" points="512.2 986 512.2 404 313.2 404 313.2 986" />
                <polyline class="cls-1" points="512.2 986 512.2 404 313.2 404 313.2 986" />
                <path class="cls-1" d="M488.3,986c-2.28-39.17-19.89-341.5-21.37-355.53a4.89,4.89,0,0,1,0-1.93,21.87,21.87,0,0,0,4.67-7.56c2.91-8.2,4.31-19.63,5.33-30.07.52-5.39.94-10.51,1.41-14.8.16-1.48.31-3,.43-4.47,1.36-16.52.56-33.63,5-46.82,0-.14.09-.28.14-.42,3.07-8.9,8.7-19.78,14-30.22,7.06-13.95,13.5-27.12,12.32-33.75a4.91,4.91,0,0,0-2.25-3.56c-10.44-6.33-19.42,15.2-25,25.63-2.74,5.18-6.37,12.48-10.14,18.55-4.28,6.87-8.74,12.16-12.3,10.94-4.36-1.5-3.13-14.74-1-28.64,1.15-7.48,2.56-15.16,3.5-21.29,1-6.8,2.39-15.51,3.29-25.2.55-5.9,2.13-20.39-7.58-20.84-13.55-.63-13.65,33.84-15.57,44.2-1.52,8.22-3.51,16.73-5.45,24.41-1.84,7.27-3.61,19-9.22,18.64s-7.43-14.14-8.84-22.75c-3-18.3-4.39-42-8.12-61.32-2-10.28-4.19-15-11.18-15l-.89,0" />
                <path class="cls-1" d="M399.5,404.26c-13.92.71-7.59,27.85-6.62,41.09.74,10.07,1.85,21,2.63,31.75.15,1.91.31,4,.47,6.24.69,9.83,1.13,21.19-2.38,21.9-2.68.55-5.61-4.05-8.21-9.21-1.58-3.14-3-6.48-4.24-9-6.9-14.44-11.47-26.52-20.38-42.12-3.9-6.83-8.18-15.12-15.94-12.63-8.7,2.79-5.16,17.3-.55,29.34,2.58,6.76,5.5,12.74,6.76,15.44,2.12,4.5,4.51,9.35,6.88,14.27,4.92,10.25,9.71,20.79,11.58,29.1.44,2,.83,4,1.16,6,1.92,12.18,1.46,25-4.18,30.49-4.71,0-6.94-4.4-9.38-8.53a32.15,32.15,0,0,0-2.27-3.45l-.08-.1c-4.73-5.94-12.34-15-21.08-18.49a16.69,16.69,0,0,0-16.52,1.84,26,26,0,0,0-3.31,2.76c.82,3.82,4,6.76,5.86,9.87,5.47,9,12.72,16.2,18.8,24.51,6.51,8.9,10.52,19.39,16.69,28.06,7.15,10,14.76,20.86,24,29,3.06,2.7,5.87,5.68,8.84,8.86l2.82,3c3.32,3.51-20.29,312.11-23.33,351.73" />
            </g>
        </g>
    </g>
</svg>
